<?xml version="1.0" encoding="UTF-8"?>
<svg width="1120px" height="337px" viewBox="0 0 1120 337" version="1.1" xmlns="http://www.w3.org/2000/svg" xmlns:xlink="http://www.w3.org/1999/xlink">
    <!-- Generator: Sketch 41 (35326) - http://www.bohemiancoding.com/sketch -->
    <title>Group 4</title>
    <desc>Created with Sketch.</desc>
    <defs>
        <polygon id="path-1" points="723.991258 57.9090909 0 57.9090909 0 0.00646030429 723.991258 0.00646030429"></polygon>
        <polygon id="path-3" points="664.731 0.0569200446 664.731 51 0 51 0 0.0569200446 664.731 0.0569200446"></polygon>
    </defs>
    <g id="Welcome" stroke="none" stroke-width="1" fill="none" fill-rule="evenodd">
        <g id="Homepage" transform="translate(0.000000, -733.000000)">
            <g id="Page-1" transform="translate(0.000000, 901.000000)">
                <path d="M989.690722,117.377345 C1006.64247,118.730618 1020.99629,127.115345 1056.49485,130.108255 C1081.19423,132.191345 1120,142.380982 1120,142.380982 L0,142.380982 L0,18.6391636 C36.2061856,19.1137091 73.0721649,2.75007273 108.865979,0.115527273 C150.103093,-1.52083636 189.690722,14.8428 230.927835,11.5700727 C265.56701,9.93370909 296.907216,0.115527273 329.896907,6.66098182 C364.536082,13.2064364 392.57732,24.6609818 428.865979,24.6609818 C478.350515,24.6609818 503.092784,47.5700727 549.278351,63.9337091 C595.463918,80.2973455 640,67.2064364 686.185567,75.3882545 C729.072165,83.5700727 768.659794,106.479164 811.546392,114.660982 C831.340206,117.933709 852.783505,116.297345 872.57732,119.570073 C894.020619,122.8428 912.691134,115.937345 931.958763,117.212073 C955.051546,118.735527 972.979794,116.042073 989.690722,117.377345" id="Fill-1" fill="#99D1DB"></path>
                <path d="M876.976495,142.381473 L0,142.381473 L0,70.1294727 C41.4020619,83.6458364 77.443299,54.7574727 118.762887,49.8794727 C156.701031,44.4287455 197.938144,47.1549273 235.876289,44.4287455 C277.113402,38.9780182 308.453608,63.5071091 348.041237,79.8592909 C384.329897,90.7607455 416.770309,67.4327455 451.409485,67.4327455 C489.347629,67.4327455 524.536082,101.6622 562.474227,90.7607455 C595.463918,82.5854727 631.752577,77.3687455 666.391753,90.9947455 C697.731959,104.622382 730.721649,96.2114727 763.71134,115.289836 C780.519588,124.964018 861.684124,134.612018 876.976495,142.381473" id="Fill-3" fill="#67B5CC"></path>
                <g id="Group-7" transform="translate(0.000000, 84.472382)">
                    <mask id="mask-2" fill="white">
                        <use xlink:href="#path-1"></use>
                    </mask>
                    <g id="Clip-6"></g>
                    <path d="M420.068784,1.20467273 C465.025485,11.3648545 458.490227,29.2388545 486.597443,35.2443091 C519.587134,39.4726727 547.646515,34.3312182 582.267546,36.6204909 C611.974763,38.5841273 641.64899,47.9294 671.339711,47.9294 C690.623835,46.9786727 707.578887,51.5883091 723.991258,57.9095818 L-0.000494845361,57.9095818 L-0.000494845361,33.7421273 C28.7335258,47.4646727 65.3355876,34.6732182 92.3706392,28.9001273 C125.36033,22.5575818 156.700536,31.0143091 189.690227,37.3584909 C219.380948,45.8152182 239.494763,40.7932182 268.865485,37.3584909 C307.933526,32.7897636 382.097649,-7.37641818 420.068784,1.20467273" id="Fill-5" fill="#9D8999" mask="url(#mask-2)"></path>
                </g>
            </g>
            <g id="Page-1" transform="translate(0.000000, 733.000000)">
                <path d="M320.2908,296.0159 C323.6748,269.0919 328.5768,187.0299 277.5028,106.9529 C277.5028,106.9529 316.1958,222.2179 279.3798,297.7389 C278.5068,297.9119 277.6458,298.0899 276.7868,298.2709 C288.3558,296.2149 320.7798,296.0199 320.2908,296.0159" id="Fill-1" fill="#475059"></path>
                <path d="M392.8524,177.8216 C344.8294,216.6566 338.7234,272.6726 338.5434,296.3686 C337.8734,296.3086 356.4104,296.9066 366.6514,299.2906 C359.4504,223.3566 392.8524,177.8216 392.8524,177.8216" id="Fill-3" fill="#475059"></path>
                <path d="M237.1247,78.2746 C237.1247,78.2746 234.4807,88.9756 226.6227,98.9516 C227.1507,98.4666 227.6937,97.9896 228.1997,97.4986 C228.1997,97.4986 182.5287,150.7946 231.7127,204.1996 C225.7387,188.1516 214.8117,141.1886 258.1457,78.5276 C258.1457,78.5276 308.7957,91.8076 321.9077,129.7506 C327.1607,94.6886 301.1227,77.4696 298.2397,75.6796 C290.4817,72.0876 280.2877,68.6426 270.8077,69.4116 C270.8077,69.4116 314.9957,18.9696 394.8897,74.6956 C351.8607,11.8276 285.5527,50.6666 285.5527,50.6666 C305.6097,29.6386 300.8387,0.0006 300.8387,0.0006 C264.0107,5.7766 258.8327,43.7286 258.4977,61.9516 C248.6417,40.6196 224.3497,2.0936 185.1887,27.7256 C185.1887,27.7256 187.3317,33.1266 192.8677,40.2486 L203.2017,31.8826 L199.3977,47.6406 C202.1987,50.4096 205.5107,53.2446 209.3257,56.0006 L221.7907,41.1696 L216.5737,60.7366 C219.7927,62.6156 223.2957,64.4106 227.1477,66.0366 C192.0077,63.5116 138.8547,72.2966 128.7957,145.2866 C128.7957,145.2866 128.8997,145.2576 129.0697,145.2136 C139.2217,120.6066 169.6487,66.2406 237.1247,78.2746" id="Fill-5" fill="#35AB92"></path>
                <path d="M187.7258,93.0257 L200.1648,117.2377 C210.0528,111.8107 219.2888,105.6847 226.6228,98.9517 C234.4808,88.9757 237.1248,78.2747 237.1248,78.2747 C169.6488,66.2407 139.2218,120.6067 129.0698,145.2137 C130.4888,144.8307 137.6448,142.8627 147.7288,139.4917 L153.6858,110.8237 L163.3498,133.9187 C170.1798,131.3237 177.5238,128.3027 184.8798,124.9047 L187.7258,93.0257 Z" id="Fill-7" fill="#109985"></path>
                <path d="M270.8074,69.4115 C280.2874,68.6425 290.4814,72.0875 298.2394,75.6795 C298.0724,75.5755 297.9674,75.5145 297.9674,75.5145 C305.0584,77.0275 311.8534,78.1585 318.3474,79.0005 L322.3904,58.1955 L329.9384,80.2155 C333.9564,80.5505 337.7834,80.7475 341.4924,80.8675 L340.1894,53.5485 L356.9934,80.8725 C381.1294,80.0115 395.4604,75.5145 395.4604,75.5145 C395.2714,75.2345 395.0804,74.9715 394.8904,74.6955 C314.9954,18.9705 270.8074,69.4115 270.8074,69.4115" id="Fill-9" fill="#109985"></path>
                <path d="M258.1454,78.5276 C214.8114,141.1886 225.7394,188.1516 231.7134,204.1996 C231.8194,204.3156 231.9194,204.4336 232.0294,204.5496 C232.0294,204.5496 236.2134,199.1236 241.8584,190.2706 L232.6254,170.4166 L251.4284,173.9746 C255.1844,166.9706 258.9534,159.1326 262.1694,150.8496 L244.9944,132.4906 L267.9334,133.0806 C271.5814,118.6156 272.6474,103.6876 268.5564,90.1416 C287.8854,116.8636 321.8764,129.9976 321.8764,129.9976 C321.8904,129.9136 321.8954,129.8336 321.9084,129.7506 C308.7954,91.8076 258.1454,78.5276 258.1454,78.5276" id="Fill-11" fill="#109985"></path>
                <path d="M409.8368,161.3362 C409.8368,161.3362 388.9838,156.0772 359.8748,185.1622 C359.8488,185.4132 359.8118,185.6532 359.7908,185.9062 C359.7908,185.9062 384.3838,182.7052 401.4868,168.1512 C396.5828,176.4502 394.8838,186.4912 394.9698,196.6592 L410.2298,199.9592 L395.9138,209.3352 C396.7038,215.3292 397.9228,221.1312 399.2868,226.3692 L412.2988,227.0392 L402.9818,238.6882 C405.2898,245.4582 407.1798,249.7172 407.1798,249.7172 C407.2368,249.6782 407.2908,249.6392 407.3478,249.6022 C413.4578,239.1812 431.7078,202.0752 409.8368,161.3362" id="Fill-13" fill="#109985"></path>
                <path d="M421.739,163.6174 C422.409,168.8474 425.07,175.2834 427.423,180.1824 C431.213,186.0124 436.488,191.7514 442.344,197.1144 L454.486,183.0964 L451.22,204.6484 C455.538,208.0804 459.904,211.2624 464.008,214.0854 L474.136,200.3664 L473.444,220.2934 C480.308,224.6104 485.035,227.1804 485.035,227.1804 C485.035,227.1634 485.035,227.1444 485.036,227.1274 C476.105,164.3554 421.739,163.6174 421.739,163.6174" id="Fill-15" fill="#109985"></path>
                <path d="M485.0359,227.1272 C490.1389,177.2672 456.4009,162.8872 432.7639,158.8862 C433.3529,158.7892 433.9279,158.6852 434.4989,158.5742 C426.9419,158.0292 419.7129,156.7792 419.7129,156.7792 C431.4749,133.8412 455.6809,137.0092 466.0139,139.6092 C444.4769,117.5032 422.5409,138.7322 412.6839,151.1222 C415.4109,139.0202 418.1149,113.0762 394.6789,103.3162 C394.6789,103.3162 386.7279,122.1442 396.6079,139.2962 C396.6079,139.2962 358.9509,102.8292 320.2909,137.6392 C334.8979,131.0622 375.6979,117.0522 400.7199,151.7152 C400.7199,151.7152 392.4789,153.0532 383.8819,153.8912 C380.6199,155.0272 362.2299,162.4262 359.8739,185.1622 C388.9839,156.0772 409.8369,161.3362 409.8369,161.3362 C431.7079,202.0752 413.4579,239.1812 407.3469,249.6022 C448.6459,222.2192 426.9869,179.5302 426.9869,179.5302 C427.1239,179.7492 427.2809,179.9662 427.4229,180.1832 C425.0699,175.2832 422.4089,168.8472 421.7389,163.6172 C421.7389,163.6172 476.1049,164.3562 485.0359,227.1272" id="Fill-17" fill="#35AB92"></path>
                <path d="M320.2908,137.6389 C320.1548,137.7589 320.0238,137.8689 319.8908,137.9909 C319.8908,137.9909 328.6598,143.2829 344.4818,147.7399 L360.0088,132.3809 L354.7338,150.2439 C357.2088,150.7589 359.7688,151.2439 362.4728,151.6729 L371.0238,138.3259 L370.3408,152.7379 C374.7778,153.2279 379.4548,153.5829 384.3838,153.7249 C384.3838,153.7249 384.2018,153.7809 383.8818,153.8909 C392.4788,153.0529 400.7198,151.7149 400.7198,151.7149 C375.6978,117.0519 334.8978,131.0619 320.2908,137.6389" id="Fill-19" fill="#109985"></path>
                <path d="M419.7126,156.7795 C419.7126,156.7795 426.9416,158.0295 434.4996,158.5745 C436.6546,158.1645 438.6936,157.6595 440.6236,157.0915 L440.3216,143.3005 L446.1716,155.1265 C449.1396,153.9175 451.7936,152.5775 454.0916,151.1905 L454.1146,140.1565 L459.5926,147.3625 C464.4136,143.5415 466.6976,140.3165 466.6976,140.3165 C466.4696,140.0735 466.2426,139.8435 466.0146,139.6095 C455.6806,137.0095 431.4746,133.8415 419.7126,156.7795" id="Fill-21" fill="#109985"></path>
                <path d="M278.7385,110.8812 C285.0145,131.5162 312.2105,230.3942 279.3805,297.7382 C278.5075,297.9112 277.6465,298.0902 276.7865,298.2712 C282.3505,297.2822 292.7245,296.7272 301.9545,296.4122 C320.5855,205.6822 290.8915,134.8402 278.7385,110.8812" id="Fill-23" fill="#475059"></path>
                <path d="M277.5032,106.9525 C277.5032,106.9525 277.9752,108.3755 278.7382,110.8815 C290.8922,134.8405 320.5852,205.6815 301.9542,296.4125 C311.9162,296.0745 320.5452,296.0175 320.2912,296.0155 C323.6742,269.0915 328.5772,187.0295 277.5032,106.9525" id="Fill-25" fill="#353D44"></path>
                <path d="M351.0355,297.1283 C356.3275,297.5823 362.2385,298.2633 366.6515,299.2903 C360.2735,232.0343 385.7035,188.6983 391.6115,179.6553 C358.9355,214.0483 352.2365,269.3763 351.0355,297.1283" id="Fill-27" fill="#353D44"></path>
                <g id="Group-31" transform="translate(0.000000, 285.157000)">
                    <mask id="mask-4" fill="white">
                        <use xlink:href="#path-3"></use>
                    </mask>
                    <g id="Clip-30"></g>
                    <path d="M664.7315,51 C646.7895,35.465 573.3925,30.786 484.2675,23.528 C436.5785,19.645 390.4675,9.001 332.3655,9.001 C299.0095,9.001 266.7685,-1.173 236.3565,0.181 C190.9305,2.203 197.9495,16.517 162.7505,21.004 C103.7525,28.526 13.7985,39.053 -0.0005,51 L664.7315,51 Z" id="Fill-29" fill="#F1C40F" mask="url(#mask-4)"></path>
                </g>
                <path d="M455.7502,336.157 C447.9642,331.089 339.1152,329.562 300.4412,327.194 C279.7472,325.927 261.5692,307.108 236.3562,307.108 C221.8822,307.108 206.0612,319.135 192.8652,319.577 C173.1532,320.237 176.1992,324.907 160.9242,326.371 C135.3232,328.825 96.2892,332.259 90.3022,336.157 L455.7502,336.157 Z" id="Fill-32" fill="#EF9A11"></path>
                <path d="M310.6669,305.2674 C346.2609,301.9584 360.9169,305.0084 454.4169,316.5754 C547.9169,328.1414 565.0219,321.2994 543.4169,325.3024 C516.1669,330.3504 514.4169,323.0784 442.9169,325.6094 C371.4169,328.1414 281.9169,311.1044 281.9169,311.1044 C281.9169,311.1044 303.1389,305.9674 310.6669,305.2674" id="Fill-34" fill="#E8CF18"></path>
            </g>
            <g id="Group-4" transform="translate(0.000000, 733.000000)"></g>
        </g>
    </g>
</svg>