<?xml version="1.0" encoding="UTF-8"?>
<svg width="976px" height="406px" viewBox="0 0 976 406" version="1.1" xmlns="http://www.w3.org/2000/svg" xmlns:xlink="http://www.w3.org/1999/xlink">
    <!-- Generator: Sketch 41 (35326) - http://www.bohemiancoding.com/sketch -->
    <title>Page 1</title>
    <desc>Created with Sketch.</desc>
    <defs>
        <polygon id="path-1" points="0.591856414 40.3545207 791.424022 40.3545207 791.424022 0.953269153 0.591856414 0.953269153 0.591856414 40.3545207"></polygon>
        <polygon id="path-3" points="179.026328 0.686693445 0.22022941 0.686693445 0.22022941 31.0451891 179.026328 31.0451891 179.026328 0.686693445"></polygon>
    </defs>
    <g id="Welcome" stroke="none" stroke-width="1" fill="none" fill-rule="evenodd">
        <g id="Homepage" transform="translate(-464.000000, -192.000000)">
            <g id="Page-1" transform="translate(464.000000, 191.000000)">
                <polygon id="Fill-1" fill="#AF95A7" points="322.980611 277.238544 307.11359 267.586071 274.761604 288.743428 249.506272 274.33671 163.961249 337.509738 139.124345 325.32093 110.657369 350.878109 94.4024014 350.878109 9.15388004 404.697708 458.412812 406.120936 435.152635 274.33671 365.064517 238.274229"></polygon>
                <g id="Group-12" transform="translate(8.313144, 238.265046)" fill="#C4B1A7">
                    <polygon id="Fill-2" points="356.749433 0.00973626131 387.449874 31.6419375 372.101039 31.2764394 406.764079 53.1066456 426.640806 35.9642298"></polygon>
                    <polygon id="Fill-4" points="298.801 29.3226858 286.034782 53.1049842 266.449014 50.4800431"></polygon>
                    <polygon id="Fill-6" points="241.193405 36.0705565 212.216556 68.2703874 241.193405 61.5169789 204.632198 91.379837 195.662315 83.9341972 171.515403 108.716078 201.182243 110.748469 171.515403 126.409509 155.648382 99.2408156"></polygon>
                    <polygon id="Fill-8" points="250.161625 88.2623041 221.880309 115.148568 241.194514 115.148568 216.35761 153.750154 252.841229 111.404981 246.02445 102.048783"></polygon>
                    <polygon id="Fill-10" points="130.811478 87.0536683 120.467156 121.006229 155.648382 117.905033 131.501469 144.101834 138.057769 148.238608 128.741506 153.751538 99.7701985 132.380974 86.0895344 160.646162 159.788328 153.751538 178.758922 166.998076 0.841013075 166.433215 86.0895344 112.613617 100.457418 122.731269 102.347273 112.613617"></polygon>
                </g>
                <polygon id="Fill-13" fill="#997B92" points="485.049511 269.906984 452.608852 247.780503 360.45765 317.106083 343.897867 299.783687 303.886704 331.534952 283.192518 329.643776 199.024705 406.121489 679.424674 406.121489 670.144434 238.274783 627.262466 231.081115 615.355273 244.034147 545.175711 197.073176"></polygon>
                <g id="Group-28" transform="translate(199.020882, 196.874993)">
                    <polygon id="Fill-14" fill="#B0AEAE" points="347.364114 6.71651003 321.15 41.4000669 334.257057 35.6711607 339.549759 45.0910441 344.836918 36.6153641 381.860891 45.0910441 371.513798 31.5343864 392.396415 35.4413399"></polygon>
                    <polygon id="Fill-16" fill="#C4B1A7" points="346.154552 0.197075686 327.821298 36.2457126 341.618346 28.088459 314.714241 65.0840684 286.028352 73.0336526"></polygon>
                    <polygon id="Fill-18" fill="#C4B1A7" points="347.364114 50.8368408 338.169777 69.1228227 335.869807 94.497253 347.364114 65.7696543"></polygon>
                    <polygon id="Fill-20" fill="#C4B1A7" points="370.046528 25.0999581 400.026496 43.4856213 414.746303 60.0742521 383.702252 41.4006206"></polygon>
                    <polygon id="Fill-22" fill="#C4B1A7" points="253.586861 50.9044025 218.815751 102.907586 240.20547 100.512466 193.984389 141.373495 186.39726 129.652635 134.650709 160.465234 129.133552 144.455309 75.7409991 195.140484 111.889321 185.64584 125.686369 208.926963 0.00271454391 209.248158 84.1705272 132.767676 101.539456 140.684033 104.864714 134.658851 144.878647 102.907586 161.435659 120.232751"></polygon>
                    <polygon id="Fill-24" fill="#C4B1A7" points="188.640423 152.018905 165.765422 177.224431 167.613711 193.616468 184.464454 175.972877"></polygon>
                    <polygon id="Fill-26" fill="#C4B1A7" points="287.805425 94.4961455 276.76834 122.628425 282.288268 136.777633 292.405364 122.362609"></polygon>
                </g>
                <polygon id="Fill-29" fill="#FEE3C1" points="691.035643 139.2151 694.103193 139.2151 694.103193 81.6712967 691.035643 81.6712967"></polygon>
                <polygon id="Fill-30" fill="#816784" points="659.296336 183.759907 620.762142 265.996985 586.082476 256.950906 525.460258 331.534675 509.036257 328.73806 482.229138 357.343826 466.13212 350.878386 415.078331 406.121212 954.013919 406.121212 870.023453 289.532849 857.50663 299.13825 818.304613 258.45997 790.253294 283.626731 736.195689 207.489596 692.404817 133.692202"></polygon>
                <g id="Group-37" transform="translate(569.064844, 262.149840)">
                    <polygon id="Fill-31" fill="#C4B1A7" points="221.18845 21.4768913 188.163099 49.0498482 171.581148 44.5281934 94.6734811 124.389534 167.053255 29.4541647 186.278787 32.0901815 208.743673 5.92660746"></polygon>
                    <polygon id="Fill-33" fill="#B0AEAE" points="51.6972973 10.6080293 19.8690398 0.958325006 0.00339648869 37.632739 24.6934344 14.0553411"></polygon>
                    <polygon id="Fill-35" fill="#B0AEAE" points="252.119165 2.34444895 274.287549 48.7184079 261.762412 40.350716 254.638047 59.8245668 236.87563 37.6344004 201.439467 55.3333702"></polygon>
                </g>
                <polygon id="Fill-38" fill="#F66A5D" points="694.102916 84.0653094 694.102916 102.81924 726.776343 93.4408901"></polygon>
                <polygon id="Fill-39" fill="#55B3A5" points="190.407577 398.737597 181.670463 395.115842 176.380532 401.207478 172.545401 395.115842 169.940616 398.737597 163.960695 396.613831 159.820749 400.290964 153.843598 398.737597 153.843598 401.207478 149.24643 395.115842 145.796475 400.520784 143.496505 397.070704 141.426532 400.977657 136.826592 395.115842 135.44661 400.747836 129.926683 396.843652 126.939493 398.737597 123.428575 396.195723 119.579589 400.747836 114.018096 397.076241 111.762463 402.359351 106.932526 395.115842 104.402559 402.359351 100.032617 398.737597 98.1150515 401.440068 94.4046182 398.912039 91.9854933 402.359351 88.7655355 398.737597 85.3155807 400.977657 82.3283909 397.070704 79.1056621 400.977657 75.4257103 398.737597 73.0730905 400.977657 68.9885658 398.737597 67.1458188 402.359351 63.0086441 397.762935 58.6414724 402.359351 57.0314935 398.737597 53.5787677 401.207478 51.5115659 398.737597 47.8343852 402.359351 43.4616714 397.762935 40.7044786 402.359351 38.8645027 400.061143 34.954554 402.359351 31.0446052 397.530345 25.5246775 402.359351 23.6874727 398.737597 19.7775239 402.359351 16.0948011 397.530345 12.8609881 402.359351 9.15332583 400.520784 0.000554209604 406.12232 191.324794 406.133396 197.07749 402.359351 193.170312 395.115842"></polygon>
                <g id="Group-80" transform="translate(126.937871, 0.902875)">
                    <polygon id="Fill-40" fill="#C4B1A7" points="459.142942 256.047201 444.431448 313.078753 466.511159 288.382709 444.431448 352.992809 432.4051 326.40559 404.486791 378.311861 431.975588 361.144525 454.307464 396.824895 466.511159 387.753896 478.36016 405.220276 374.379355 405.220276 347.012484 384.929592 331.477989 405.220276 288.138798 405.220276 339.195358 349.974681 355.289605 356.437352 382.096723 327.837124 398.520725 330.630969"></polygon>
                    <polygon id="Fill-42" fill="#C4B1A7" points="691.36702 257.557373 716.414523 309.964819 703.892157 301.597128 733.489721 355.350272 743.152365 331.390763 767.313133 376.91743 749.270839 372.733584 740.896732 405.218615 827.076325 405.218615 743.083089 288.630251 743.423928 311.628944"></polygon>
                    <g id="Group-46" transform="translate(57.131250, 364.876554)">
                        <mask id="mask-2" fill="white">
                            <use xlink:href="#path-1"></use>
                        </mask>
                        <g id="Clip-45"></g>
                        <path d="M781.193313,33.5905903 L791.424022,40.3550745 L0.591856414,40.3550745 L14.9680536,30.8438165 L17.6171755,34.0419251 L22.668796,29.3264455 L26.3348925,31.2813067 L32.3231273,26.236325 L36.460302,31.2813067 L41.9303508,24.7217229 L49.7086826,31.2813067 L56.251127,24.7217229 L63.1482655,29.3264455 L68.6681932,20.8895305 L77.083866,24.7217229 L81.9941631,12.4498465 L86.605187,24.7217229 L95.7939823,16.5866207 L104.982777,24.7217229 L106.858777,16.5866207 L118.782597,23.0132961 L118.782597,14.7397476 L128.908006,24.7217229 L130.753524,19.5909046 L138.099572,26.236325 L144.556114,12.9205638 L150.516639,26.236325 L154.653813,19.5909046 L167.070879,26.236325 L171.213596,20.6403272 L180.704436,26.236325 L182.114899,20.6403272 L192.154406,26.236325 L203.576666,19.5909046 L212.604741,26.236325 L225.021807,12.9205638 C225.021807,12.9205638 232.387252,26.7070423 233.767234,26.236325 C235.147216,25.7683766 238.821626,20.6403272 238.821626,20.6403272 L250.878456,26.236325 L259.98412,17.0545691 L268.510634,24.6940337 L274.856334,9.03022391 L280.157349,22.0441723 L289.238074,21.2439529 L294.095721,6.74309171 L298.537711,22.0746304 L307.008805,28.717282 L316.305671,8.75610032 L320.337546,28.717282 L326.796858,13.3054444 L330.022358,24.8020217 L337.279733,17.6332745 L342.935442,28.717282 L351.824964,15.4818196 L357.755007,21.6592917 L364.350101,13.3054444 L370.393757,28.717282 L376.442955,6.74309171 L380.879403,24.8020217 L388.552435,17.6332745 L394.349467,24.8020217 L401.141306,14.0502853 L405.522333,28.717282 L412.643926,10.6583519 L419.236249,24.8020217 L425.55701,19.3721595 L430.140323,24.8020217 L439.024303,13.3054444 L443.466293,28.717282 L449.097063,23.2874197 L454.367596,28.717282 L462.037857,9.55355077 L467.665856,26.0978787 L475.341659,19.3721595 L478.761132,30.5364658 L487.45391,19.3721595 L490.682181,26.5132175 L504.010922,14.2164208 L510.051806,26.0978787 L518.855426,22.0746304 L520.953109,28.717282 L526.860984,23.2874197 L530.637922,7.12797231 L537.512892,26.0978787 L542.752944,21.2439529 L548.411424,25.7129981 L551.642466,16.4204852 L557.298175,24.5002089 L561.740165,28.717282 L569.798373,4.17629807 L577.468634,26.5132175 L580.311729,19.3721595 L587.156217,14.2164208 L592.42398,24.5002089 L596.843801,30.5364658 L603.303114,19.3721595 L610.172542,11.9791292 L614.614532,24.8850895 L621.068303,19.3721595 L625.513064,24.8850895 L633.186096,11.1816788 L640.055524,28.717282 L643.283795,19.3721595 L648.529389,14.2164208 L653.772212,21.2439529 L655.786764,28.717282 L666.688067,11.9791292 L674.358328,30.5364658 L676.785766,19.3721595 L679.213204,28.717282 L686.886236,19.3721595 L689.310903,24.8850895 L695.221548,0.953269153 L699.391976,26.0978787 L706.255861,16.4204852 L708.686071,22.4567421 L715.530559,14.2164208 L719.559663,24.0848701 L725.218143,17.6332745 L737.615812,29.1077004 L747.732908,20.6541718 L754.632818,29.4538161 L760.839965,21.2993314 L765.439905,30.0269836 L769.119857,24.8574003 L781.193313,33.5905903 Z" id="Fill-44" fill="#39A9A0" mask="url(#mask-2)"></path>
                    </g>
                    <path d="M500.324318,394.352798 C500.324318,399.561147 496.104012,403.794833 490.883358,403.794833 C485.684872,403.794833 481.453481,399.561147 481.453481,394.352798 C481.453481,389.133374 485.684872,384.930146 490.883358,384.930146 C496.104012,384.930146 500.324318,389.133374 500.324318,394.352798" id="Fill-47" fill="#FFFFFF"></path>
                    <path d="M490.885298,396.825726 C490.134344,396.825726 489.388932,396.482379 488.906769,395.828912 C488.08931,394.732418 488.322078,393.187358 489.419413,392.373294 L564.694933,336.446543 L515.627985,282.563259 C515.143052,282.028856 514.915826,281.300629 515.0045,280.580709 C515.098715,279.858019 515.511601,279.218397 516.124003,278.822441 L600.574462,224.914237 L569.225596,175.389241 C569.05102,175.104042 568.929094,174.793922 568.876444,174.46442 L562.849415,137.67648 C562.636044,136.325244 563.55049,135.057077 564.891677,134.838332 C566.243948,134.605742 567.513088,135.530563 567.72923,136.876261 L573.673128,173.171332 L606.074993,224.352145 C606.798236,225.49848 606.462939,227.021389 605.315726,227.749616 L521.258755,281.408617 L570.18715,335.136841 C570.655457,335.65463 570.885454,336.344093 570.824491,337.039093 C570.746902,337.731324 570.392207,338.365408 569.837998,338.780747 L492.359495,396.338395 C491.916127,396.667897 491.403484,396.825726 490.885298,396.825726" id="Fill-49" fill="#FFFFFF"></path>
                    <path d="M573.494673,336.609633 C573.494673,340.959614 569.967129,344.467842 565.619354,344.467842 C561.27158,344.467842 557.744036,340.959614 557.744036,336.609633 C557.744036,332.254113 561.27158,328.740347 565.619354,328.740347 C569.967129,328.740347 573.494673,332.254113 573.494673,336.609633" id="Fill-51" fill="#FFFFFF"></path>
                    <path d="M527.839994,280.899966 C527.839994,285.033971 524.492568,288.381601 520.355393,288.381601 C516.226532,288.381601 512.870793,285.033971 512.870793,280.899966 C512.870793,276.774267 516.226532,273.432174 520.355393,273.432174 C524.492568,273.432174 527.839994,276.774267 527.839994,280.899966" id="Fill-53" fill="#EBECEB"></path>
                    <path d="M610.262323,225.671538 C610.262323,229.141001 607.452481,231.945922 603.977587,231.945922 C600.513776,231.945922 597.701163,229.141001 597.701163,225.671538 C597.701163,222.204843 600.513776,219.394384 603.977587,219.394384 C607.452481,219.394384 610.262323,222.204843 610.262323,225.671538" id="Fill-55" fill="#EBECEB"></path>
                    <path d="M512.84807,340.275136 C512.84807,346.831951 509.736183,349.733784 505.673827,356.913607 L491.901718,379.942758 L490.884743,381.617958 L476.056865,356.977293 C471.747886,349.506732 468.924188,346.831951 468.924188,340.275136 C468.924188,328.161088 478.755866,318.334173 490.884743,318.334173 C491.19233,318.334173 491.494374,318.342479 491.777021,318.356324 L492.018102,318.356324 C503.623251,318.948874 512.84807,328.554276 512.84807,340.275136" id="Fill-57" fill="#FFFFFF"></path>
                    <path d="M506.908329,340.425212 C506.908329,349.260852 499.742398,356.437906 490.886129,356.437906 C482.046486,356.437906 474.869471,349.260852 474.869471,340.425212 C474.869471,331.586802 482.046486,324.415286 490.886129,324.415286 C499.742398,324.415286 506.908329,331.586802 506.908329,340.425212" id="Fill-59" fill="#F66A5D"></path>
                    <polygon id="Fill-61" fill="#C4B1A7" points="565.465561 132.789604 547.437123 173.163302 556.451342 168.979456 539.888788 219.393277 535.377522 198.917075 520.35567 240.437108 493.822886 265.094387 532.35985 182.857309"></polygon>
                    <polygon id="Fill-63" fill="#C4B1A7" points="552.449117 215.009514 547.436291 235.610318 554.061867 246.877074 555.350405 225.669876"></polygon>
                    <polygon id="Fill-65" fill="#C4B1A7" points="699.133436 334.105694 711.154242 349.974404 717.170187 377.88517 699.133436 356.437075"></polygon>
                    <polygon id="Fill-67" fill="#C4B1A7" points="629.118474 355.996262 627.400424 331.388824 570.707553 381.617127"></polygon>
                    <path d="M571.916838,137.27554 C571.916838,140.739465 569.101453,143.549924 565.632101,143.549924 C562.162749,143.549924 559.350135,140.739465 559.350135,137.27554 C559.350135,133.808845 562.162749,130.995617 565.632101,130.995617 C569.101453,130.995617 571.916838,133.808845 571.916838,137.27554" id="Fill-69" fill="#FFFFFF"></path>
                    <path d="M255.845586,223.535921 L87.7067049,223.535921 C79.3187426,212.728806 91.7358088,202.306571 103.243971,209.05998 C104.37733,200.318483 110.335083,192.460273 119.690141,190.447265 C128.019912,188.074296 135.557162,192.21107 141.875152,198.167028 C143.587659,193.562306 147.702666,190.034695 153.738008,189.536288 C161.580074,188.957583 169.416598,195.904816 175.18592,203.93193 C184.319294,196.15402 200.848596,201.367906 212.908197,209.392251 C220.661589,194.608959 247.23594,215.733089 255.845586,223.535921" id="Fill-71" fill="#FFFFFF"></path>
                    <g id="Group-75" transform="translate(311.852598, 0.300542)">
                        <mask id="mask-4" fill="white">
                            <use xlink:href="#path-3"></use>
                        </mask>
                        <g id="Clip-74"></g>
                        <path d="M179.026328,31.0451891 L0.360236243,31.0451891 C-1.08070873,20.3405244 8.84795633,10.5717563 18.7710793,9.69677599 C24.3685963,8.81625778 30.3069522,10.51084 35.9044692,13.620343 C39.0135851,6.18024101 45.8303632,0.714382697 55.4154183,0.714382697 C65.15011,0.14952196 76.5585147,7.71699448 86.7393452,17.0427345 C87.8727038,7.59239285 94.1879223,1.03004017 106.754625,1.74996072 C115.932336,2.28436328 124.292588,7.87482322 131.83261,14.7500644 C137.269406,-0.00553785036 171.860398,21.2487318 179.026328,31.0451891" id="Fill-73" fill="#FFFFFF" mask="url(#mask-4)"></path>
                    </g>
                    <path d="M798.677517,122.429116 L634.811592,122.429116 C630.957064,117.159852 632.985471,110.533814 636.255308,107.706741 C645.27784,99.8956034 656.669619,102.285186 667.002857,108.066702 C669.704629,100.202954 680.170877,94.8866177 689.814124,97.5835508 C697.733779,99.7903842 703.544667,103.542278 708.532554,108.271602 C712.874786,98.688352 735.117988,101.307755 748.665642,108.501423 C754.71484,98.5859017 790.968461,111.945966 798.677517,122.429116" id="Fill-76" fill="#FFFFFF"></path>
                    <path d="M124.816945,65.0827683 L1.58012642,65.0827683 C-1.31838981,61.1204364 0.205686603,56.1363711 2.66637725,54.0098365 C9.45267385,48.1341773 18.0207543,49.9339787 25.790773,54.2811912 C27.8219512,48.366767 35.6944986,44.368439 42.9463313,46.3980612 C48.9040845,48.0594163 53.2712562,50.8809511 57.0232552,54.436251 C60.2875498,47.2287388 77.0163667,49.2002135 87.2082813,54.6106933 C91.7528001,47.1512089 119.017142,57.1968694 124.816945,65.0827683" id="Fill-78" fill="#FFFFFF"></path>
                </g>
            </g>
        </g>
    </g>
</svg>