<?xml version="1.0" encoding="UTF-8"?>
<svg width="766px" height="189px" viewBox="0 0 766 189" version="1.1" xmlns="http://www.w3.org/2000/svg" xmlns:xlink="http://www.w3.org/1999/xlink">
    <!-- Generator: Sketch 41 (35326) - http://www.bohemiancoding.com/sketch -->
    <title>Group 5</title>
    <desc>Created with Sketch.</desc>
    <defs>
        <polygon id="path-1" points="84.1661808 0.370557769 0.159190588 0.370557769 0.159190588 32.7171394 84.1661808 32.7171394 84.1661808 0.370557769"></polygon>
        <polygon id="path-3" points="0 0.09625 0 7.602 7.49296059 7.602 7.49296059 0.09625 2.36770621e-20 0.09625"></polygon>
        <polygon id="path-5" points="0 0.073325 0 7.579075 7.49296059 7.579075 7.49296059 0.073325 2.36770621e-20 0.073325"></polygon>
        <polygon id="path-7" points="0.292282941 40.8333333 29.8647476 40.8333333 29.8647476 0.0287 0.292282941 0.0287 0.292282941 40.8333333"></polygon>
        <polygon id="path-9" points="81.1757742 0.039766537 0.13672133 0.039766537 0.13672133 28.0780345 81.1757742 28.0780345 81.1757742 0.039766537"></polygon>
        <path d="M0.154911058,1.46635184 C0.158401995,1.1727737 0.242459766,0.950038057 0.410241573,0.820894942 C0.531007187,0.696489041 0.688352681,0.58746178 0.879735971,0.491868279 L26.087543,0.491868279 C26.2788469,0.58746178 26.4361003,0.696489041 26.5567584,0.820894942 C28.0394242,1.96054813 22.988482,10.4038554 13.5812644,10.4712677 L13.384396,10.4712677 C5.08929684,10.4120152 0.182088455,3.83923726 0.154911063,1.50493347 L0.154911063,1.46635143 L0.154911058,1.46635184 Z" id="path-11"></path>
        <path d="M0.154911063,1.46635142 C0.158402076,1.17277349 0.242459847,0.950037994 0.410241573,0.820894942 C0.661731368,0.561824387 1.07185522,0.369445574 1.61765581,0.22619449 L25.3498387,0.22619449 C25.8955261,0.369445574 26.3054924,0.561824387 26.5567584,0.820894942 C27.1344678,1.26495209 26.7202372,2.81785851 25.4428688,4.55207549 L1.52388989,4.55207549 C0.634114169,3.34380744 0.163277462,2.2235348 0.154911063,1.50493347 L0.154911063,1.46635057 L0.154911063,1.46635142 Z" id="path-13"></path>
        <polygon id="path-15" points="0 150.414729 123.716321 150.414729 123.716321 0.14222093 0.000118220638 0.14222093 123.716349 0.14181124 123.716349 121.435195 108.346974 121.435195 0.000118220638 121.435195 0.000118220638 0.14222093"></polygon>
        <polygon id="path-17" points="0.108850943 53.8449612 31.1924925 53.8449612 31.1924925 0.101486047 0.108850943 0.101486047"></polygon>
    </defs>
    <g id="Welcome" stroke="none" stroke-width="1" fill="none" fill-rule="evenodd">
        <g id="Homepage" transform="translate(-343.000000, -2113.000000)">
            <g id="Group-5" transform="translate(343.000000, 2113.000000)">
                <g id="Page-1" transform="translate(670.000000, 46.000000)">
                    <path d="M22.9706541,78.4437984 C22.9706541,85.69089 17.8278776,91.5655036 11.4851012,91.5655036 C5.14232471,91.5655036 0.000112941176,85.69089 0.000112941176,78.4437984 C0.000112941176,71.1967068 5.14232471,65.3220932 11.4851012,65.3220932 C17.8278776,65.3220932 22.9706541,71.1967068 22.9706541,78.4437984" id="Fill-1" fill="#FFC79A"></path>
                    <path d="M95.4691765,78.4437984 C95.4691765,85.69089 90.3269647,91.5655036 83.9836235,91.5655036 C77.6402824,91.5655036 72.4986353,85.69089 72.4986353,78.4437984 C72.4986353,71.1967068 77.6402824,65.3220932 83.9836235,65.3220932 C90.3269647,65.3220932 95.4691765,71.1967068 95.4691765,78.4437984" id="Fill-3" fill="#FFC79A"></path>
                    <g id="Group-7" transform="translate(33.317647, 105.422271)" fill="#FFC79A">
                        <polygon id="Fill-5" points="14.4166024 0.179960956 0.0826729412 0.179960956 0.0826729412 36.2072279 14.4166024 36.2072279 28.7505318 36.2072279 28.7505318 0.179960956"></polygon>
                    </g>
                    <path d="M7.16007529,23.4213442 L7.16007529,90.8572008 C7.16007529,105.556747 21.5933929,117.473432 39.39744,117.473432 L56.0715106,117.473432 C73.8755576,117.473432 88.3088753,105.556747 88.3088753,90.8572008 L88.3088753,23.4213442 L7.16007529,23.4213442 Z" id="Fill-8" fill="#FFD0A5"></path>
                    <path d="M55.0162447,87.4452972 L50.1433976,70.4228351 C49.6464565,68.7397673 48.7282447,67.7033371 47.7337976,67.7033371 C46.7399153,67.7033371 45.8217035,68.7397673 45.3247624,70.4228351 L40.4519153,87.4452972 C39.9555388,89.1289307 39.9555388,90.6824446 40.4519153,92.3655124 C40.9494212,94.0485801 42.3871624,94.5656637 43.3810447,94.5656637 L47.7337976,94.5656637 L52.0871153,94.5656637 C53.0815624,94.5656637 54.5193035,94.0485801 55.0162447,92.3655124 C55.5131859,90.6824446 55.5131859,89.1289307 55.0162447,87.4452972" id="Fill-10" fill="#FFBF8F"></path>
                    <path d="M7.13839059,56.5522072 L10.7705788,37.825745 C10.9044141,37.0795378 11.4374965,36.5488765 12.0535906,36.5488765 L16.1680376,36.5488765 C16.8948141,36.5488765 17.4838024,35.8179442 17.4838024,34.9172908 L17.4838024,22.6849243 L6.37095529,22.6849243 L6.37095529,55.7833705 C6.37095529,56.208239 6.71429647,56.5522072 7.13839059,56.5522072" id="Fill-12" fill="#66544F"></path>
                    <path d="M79.2932894,36.5488765 L83.4083012,36.5488765 C84.0243953,36.5488765 84.5574776,37.0795378 84.6913129,37.825745 L88.3235012,56.5522072 C88.7475953,56.5522072 89.0915012,56.2076733 89.0915012,55.7833705 L89.0915012,22.6849243 L77.9786541,22.6849243 L77.9786541,34.9172908 C77.9786541,35.8179442 78.5670776,36.5488765 79.2932894,36.5488765" id="Fill-14" fill="#66544F"></path>
                    <g id="Group-18" transform="translate(6.211765, 0.195179)">
                        <mask id="mask-2" fill="white">
                            <use xlink:href="#path-1"></use>
                        </mask>
                        <g id="Clip-17"></g>
                        <path d="M84.0202729,11.8176813 C84.0112376,11.7503586 83.9632376,11.6954821 83.8982965,11.6768127 C83.8327906,11.6581434 83.7633318,11.6802072 83.7204141,11.7328207 C83.3093082,12.2363267 81.9269082,13.3146215 79.5720847,14.0732749 C79.4969788,14.0970359 79.4167906,14.0942072 79.36032,14.0404622 C79.3032847,13.9872829 79.2829553,13.9041195 79.31232,13.8311394 C81.3627671,8.71121912 79.5782965,2.58598406 79.3117553,1.54446215 C79.2919906,1.46695618 79.2214024,1.41490837 79.1412141,1.41660558 C79.0615906,1.42 78.9949553,1.47827092 78.9802729,1.55634263 C78.8701553,2.1712988 78.5962729,2.99840637 77.92032,3.58903586 C73.8363671,7.15600797 62.9324612,1.24688446 47.9446024,0.420342629 C33.4079435,-0.380741036 20.59872,8.66822311 19.8420141,9.21189641 C19.8380612,9.21529084 19.8329788,9.21529084 19.8290259,9.21133068 C19.8256376,9.20850199 19.8245082,9.20341036 19.8262024,9.19888446 C20.5840376,7.7183506 21.1560847,6.14843028 21.5265318,4.52646215 C21.5434729,4.45461355 21.51072,4.37880478 21.4463435,4.34203187 C21.3825318,4.30469323 21.3006494,4.31317928 21.2464376,4.36352988 C20.3417788,5.19912351 17.6656376,6.98006375 10.1392376,8.92223904 C2.76361412,10.8248127 0.159190588,17.3177769 0.159190588,22.489745 C0.159190588,28.1380637 18.6764612,32.7171394 41.5193788,32.7171394 C64.3622965,32.7171394 82.8795671,28.1380637 82.8795671,22.489745 C82.8795671,22.4484462 82.8756141,22.4071474 82.8733553,22.3664143 C84.5279435,17.1356096 84.1851671,13.050988 84.0202729,11.8176813" id="Fill-16" fill="#66544F" mask="url(#mask-2)"></path>
                    </g>
                    <path d="M30.2689694,55.1929673 C30.3988518,56.6780271 29.3016282,57.9882741 27.8192753,58.1178279 L19.0714165,58.8849673 C17.5884988,59.0150869 16.2812047,57.915294 16.1513224,56.4308 C16.0220047,54.9446088 17.1186635,53.6349275 18.6015812,53.504808 L27.3488753,52.7382343 C28.8317929,52.6081147 30.1396518,53.7073418 30.2689694,55.1929673" id="Fill-19" fill="#66544F"></path>
                    <path d="M79.3174024,56.4305171 C79.1880847,57.9155769 77.8807906,59.0153697 76.3973082,58.8846845 L67.6500141,58.1181108 C66.1676612,57.9879912 65.0704376,56.6777442 65.20032,55.1926845 C65.3296376,53.7076247 66.6374965,52.6083976 68.1204141,52.7379514 L76.8677082,53.5050908 C78.3506259,53.6352104 79.4472847,54.9448916 79.3174024,56.4305171" id="Fill-21" fill="#66544F"></path>
                    <path d="M87.6673694,33.8360542 L87.6673694,78.4981657 C87.6673694,88.0551618 79.9342871,95.8029307 70.3947106,95.8029307 L25.0748047,95.8029307 C15.5352282,95.8029307 7.80214588,88.0551618 7.80214588,78.4981657 L7.80214588,33.8360542 L6.37118118,33.8360542 L6.37118118,92.9612335 C6.37118118,115.221855 24.3841694,133.268301 46.6047812,133.268301 L47.7178165,133.268301 L47.7178165,133.184006 L47.7516988,133.268301 L49.2922165,133.268301 C71.2762165,133.268301 89.0983341,115.41364 89.0983341,93.3894964 L89.0983341,19.4657673 L87.6673694,33.8360542 Z" id="Fill-23" fill="#66544F"></path>
                    <path d="M31.1968376,69.7398207 C31.1968376,73.134243 28.4495435,75.885988 25.0613082,75.885988 C21.6725082,75.885988 18.9263435,73.134243 18.9263435,69.7398207 C18.9263435,66.3453984 21.6725082,63.5936534 25.0613082,63.5936534 C28.4495435,63.5936534 31.1968376,66.3453984 31.1968376,69.7398207" id="Fill-25" fill="#FFFFFF"></path>
                    <path d="M28.7534118,69.7398207 C28.7534118,71.7821315 27.1005176,73.4386096 25.0613647,73.4386096 C23.0222118,73.4386096 21.3693176,71.7821315 21.3693176,69.7398207 C21.3693176,67.69751 23.0222118,66.0404661 25.0613647,66.0404661 C27.1005176,66.0404661 28.7534118,67.69751 28.7534118,69.7398207" id="Fill-27" fill="#725E58"></path>
                    <path d="M76.5428329,69.7398207 C76.5428329,73.134243 73.7961035,75.885988 70.4078682,75.885988 C67.0196329,75.885988 64.2723388,73.134243 64.2723388,69.7398207 C64.2723388,66.3453984 67.0196329,63.5936534 70.4078682,63.5936534 C73.7961035,63.5936534 76.5428329,66.3453984 76.5428329,69.7398207" id="Fill-29" fill="#FFFFFF"></path>
                    <path d="M74.1000847,69.7398207 C74.1000847,71.7821315 72.4471906,73.4386096 70.4080376,73.4386096 C68.3688847,73.4386096 66.7154259,71.7821315 66.7154259,69.7398207 C66.7154259,67.69751 68.3688847,66.0404661 70.4080376,66.0404661 C72.4471906,66.0404661 74.1000847,67.69751 74.1000847,69.7398207" id="Fill-31" fill="#725E58"></path>
                    <path d="M60.2450824,104.483147 C61.6687059,105.289888 56.7969882,110.348709 47.7345882,110.354932 C38.6721882,110.349275 33.7999059,105.290454 35.2235294,104.483147 C36.4438588,103.555339 41.5696941,105.713625 47.7345882,105.590295 C53.8989176,105.713625 59.0253176,103.555339 60.2450824,104.483147" id="Fill-33" fill="#EC8F6F"></path>
                    <path d="M40.5143718,61.3327984 L40.5143718,74.6728781 C40.5143718,77.3725753 38.9309365,79.5687665 36.9838306,79.5687665 L15.3121129,79.5687665 C13.3655718,79.5687665 11.7821365,77.3725753 11.7821365,74.6728781 L10.89216,61.3327984 L9.29291294,61.3327984 L10.1828894,74.6728781 C10.1828894,78.5956988 12.4835012,81.3417865 15.3121129,81.3417865 L36.9838306,81.3417865 C39.8124424,81.3417865 42.1130541,78.5956988 42.1130541,74.6728781 L42.1130541,61.3327984 L40.5143718,61.3327984 Z" id="Fill-35" fill="#CC5A5A"></path>
                    <path d="M4.02330353,59.3113633 C2.79224471,59.5891402 2.03271529,60.7217458 2.32015059,61.7989092 C2.36871529,61.9861681 2.41784471,62.1734271 2.46640941,62.3606861 C2.55393882,62.6967339 2.64146824,63.0316502 2.72899765,63.367698 C2.77756235,63.554957 2.82612706,63.7422159 2.87525647,63.9289092 C2.94810353,64.2010287 3.07459765,64.4459928 3.24175059,64.6553155 L3.24231529,64.6553155 C3.92448,65.5395625 4.69135059,65.5440884 4.69135059,65.5440884 L5.58019765,65.5440884 L10.0820329,65.5440884 C10.4903153,65.5440884 10.8206682,65.2182239 10.8206682,64.8165506 L10.8206682,63.9028853 C10.8206682,62.2565904 11.3769035,61.7745825 11.7552565,61.6365426 C21.8414682,60.2906542 32.33088,60.9768932 42.2442918,63.4870685 C42.5565741,62.2888375 42.6644329,60.9802876 42.9767153,59.7820566 C30.2030682,56.5703673 16.8483388,56.4147896 4.02330353,59.3113633" id="Fill-37" fill="#CC5A5A"></path>
                    <path d="M84.5766212,61.4814741 L83.6866447,74.6727649 C83.6866447,77.3724622 82.1032094,79.5686534 80.1566682,79.5686534 L58.4843859,79.5686534 C56.5378447,79.5686534 54.9544094,77.3724622 54.9544094,74.6727649 L54.9544094,61.4814741 L53.3557271,61.4814741 L53.3557271,74.6727649 C53.3557271,78.5961514 55.6563388,81.3416733 58.4843859,81.3416733 L80.1566682,81.3416733 C82.98528,81.3416733 85.2858918,78.5961514 85.2858918,74.6727649 L86.1758682,61.4814741 L84.5766212,61.4814741 Z" id="Fill-39" fill="#CC5A5A"></path>
                    <path d="M91.4458165,59.3113633 C78.6207812,56.4147896 65.2654871,56.5703673 52.4924047,59.7820566 C52.8046871,60.9802876 52.9125459,62.2888375 53.2242635,63.4870685 C63.13824,60.9768932 73.6270871,60.2906542 83.7132988,61.6365426 C84.0916518,61.7745825 84.6478871,62.2565904 84.6478871,63.9028853 L84.6478871,64.8165506 C84.6478871,65.2182239 84.9788047,65.5440884 85.3865224,65.5440884 L89.8889224,65.5440884 L90.7772047,65.5440884 C90.7772047,65.5440884 91.5440753,65.5395625 92.2268047,64.6553155 L92.2273694,64.6553155 C92.3939576,64.4459928 92.5204518,64.2010287 92.5938635,63.9289092 C92.6424282,63.7422159 92.6915576,63.554957 92.7395576,63.367698 C92.8276518,63.0316502 92.9146165,62.6967339 93.0021459,62.3606861 C93.0512753,62.1734271 93.09984,61.9861681 93.1484047,61.7989092 C93.43584,60.7217458 92.6768753,59.5891402 91.4458165,59.3113633" id="Fill-41" fill="#CC5A5A"></path>
                    <path d="M53.2975059,63.4872382 C49.6410353,62.6222263 45.8281412,62.6222263 42.1711059,63.4872382 C41.8661647,62.2346964 41.5612235,60.9827203 41.2562824,59.7307442 C45.5141647,58.7231665 49.9544471,58.7231665 54.2123294,59.7307442 C53.9073882,60.9827203 53.6024471,62.2346964 53.2975059,63.4872382" id="Fill-43" fill="#CC5A5A"></path>
                    <path d="M90.72288,62.2244566 C90.72288,63.1273729 89.9921506,63.8588709 89.0914447,63.8588709 C88.1901741,63.8588709 87.4594447,63.1273729 87.4594447,62.2244566 C87.4594447,61.3215402 88.1901741,60.5900422 89.0914447,60.5900422 C89.9921506,60.5900422 90.72288,61.3215402 90.72288,62.2244566" id="Fill-45" fill="#EFE167"></path>
                    <path d="M8.00250353,62.2244566 C8.00250353,63.1273729 7.27177412,63.8588709 6.37106824,63.8588709 C5.46979765,63.8588709 4.73906824,63.1273729 4.73906824,62.2244566 C4.73906824,61.3215402 5.46979765,60.5900422 6.37106824,60.5900422 C7.27177412,60.5900422 8.00250353,61.3215402 8.00250353,62.2244566" id="Fill-47" fill="#EFE167"></path>
                </g>
                <g id="Page-1" transform="translate(325.000000, 0.000000)">
                    <path d="M95.1288088,80.4868167 C95.1288088,109.98015 75.4912853,146.983317 49.4373971,146.983317 C23.3840912,146.983317 3.74598529,109.98015 3.74598529,80.4868167 C3.74598529,50.9934833 23.3840912,41.6852333 49.4373971,41.6852333 C75.4912853,41.6852333 95.1288088,50.9934833 95.1288088,80.4868167" id="Fill-1" fill="#414141"></path>
                    <path d="M73.0681147,23.2534167 C73.0681147,34.0229167 62.4885088,42.7525 49.4373971,42.7525 C36.3868676,42.7525 25.8072618,34.0229167 25.8072618,23.2534167 C25.8072618,12.4839167 36.3868676,3.75375 49.4373971,3.75375 C62.4885088,3.75375 73.0681147,12.4839167 73.0681147,23.2534167" id="Fill-3" fill="#414141"></path>
                    <path d="M68.59611,42.504525 C68.59611,45.3126917 66.4163629,47.5911917 63.7288041,47.5911917 L35.1475041,47.5911917 C32.4587806,47.5911917 30.2790335,45.3126917 30.2790335,42.504525 C30.2790335,39.6951917 32.4587806,37.4166917 35.1475041,37.4166917 L63.7288041,37.4166917 C66.4163629,37.4166917 68.59611,39.6951917 68.59611,42.504525" id="Fill-5" fill="#414141"></path>
                    <path d="M12.1968,107.164225 C12.1968,109.237392 10.5196235,110.917392 8.45052353,110.917392 C6.38084118,110.917392 4.70366471,109.237392 4.70366471,107.164225 C4.70366471,105.091058 6.38084118,103.411058 8.45052353,103.411058 C10.5196235,103.411058 12.1968,105.091058 12.1968,107.164225" id="Fill-7" fill="#414141"></path>
                    <path d="M10.44252,102.032992 C10.44252,104.106158 8.76534353,105.786158 6.69566118,105.786158 C4.62656118,105.786158 2.94938471,104.106158 2.94938471,102.032992 C2.94938471,99.959825 4.62656118,98.279825 6.69566118,98.279825 C8.76534353,98.279825 10.44252,99.959825 10.44252,102.032992" id="Fill-9" fill="#414141"></path>
                    <path d="M8.95140529,96.4280333 C8.95140529,98.5006167 7.27422882,100.1812 5.20454647,100.1812 C3.13544647,100.1812 1.45827,98.5006167 1.45827,96.4280333 C1.45827,94.3548667 3.13544647,92.6748667 5.20454647,92.6748667 C7.27422882,92.6748667 8.95140529,94.3548667 8.95140529,96.4280333" id="Fill-11" fill="#414141"></path>
                    <path d="M7.75379647,90.5815167 C7.75379647,92.6535167 6.07662,94.3346833 4.00693765,94.3346833 C1.93783765,94.3346833 0.260661176,92.6535167 0.260661176,90.5815167 C0.260661176,88.50835 1.93783765,86.82835 4.00693765,86.82835 C6.07662,86.82835 7.75379647,88.50835 7.75379647,90.5815167" id="Fill-13" fill="#414141"></path>
                    <g id="Group-17" transform="translate(0.000000, 81.461333)">
                        <mask id="mask-4" fill="white">
                            <use xlink:href="#path-3"></use>
                        </mask>
                        <g id="Clip-16"></g>
                        <path d="M7.49296059,3.84883333 C7.49296059,5.922 5.81578412,7.602 3.74610176,7.602 C1.67700176,7.602 -0.000174705882,5.922 -0.000174705882,3.84883333 C-0.000174705882,1.77683333 1.67700176,0.09625 3.74610176,0.09625 C5.81578412,0.09625 7.49296059,1.77683333 7.49296059,3.84883333" id="Fill-15" fill="#414141" mask="url(#mask-4)"></path>
                    </g>
                    <g id="Group-20" transform="translate(0.000000, 75.628000)">
                        <mask id="mask-6" fill="white">
                            <use xlink:href="#path-5"></use>
                        </mask>
                        <g id="Clip-19"></g>
                        <path d="M7.49296059,3.82649167 C7.49296059,5.89849167 5.81578412,7.579075 3.74610176,7.579075 C1.67700176,7.579075 -0.000174705882,5.89849167 -0.000174705882,3.82649167 C-0.000174705882,1.753325 1.67700176,0.073325 3.74610176,0.073325 C5.81578412,0.073325 7.49296059,1.753325 7.49296059,3.82649167" id="Fill-18" fill="#414141" mask="url(#mask-6)"></path>
                    </g>
                    <path d="M7.75379647,73.514 C7.75379647,75.5871667 6.07662,77.2671667 4.00693765,77.2671667 C1.93783765,77.2671667 0.260661176,75.5871667 0.260661176,73.514 C0.260661176,71.442 1.93783765,69.7608333 4.00693765,69.7608333 C6.07662,69.7608333 7.75379647,71.442 7.75379647,73.514" id="Fill-21" fill="#414141"></path>
                    <path d="M8.95140529,68.2435833 C8.95140529,70.3155833 7.27422882,71.99675 5.20454647,71.99675 C3.13544647,71.99675 1.45827,70.3155833 1.45827,68.2435833 C1.45827,66.1704167 3.13544647,64.4904167 5.20454647,64.4904167 C7.27422882,64.4904167 8.95140529,66.1704167 8.95140529,68.2435833" id="Fill-23" fill="#414141"></path>
                    <path d="M10.44252,63.0561167 C10.44252,65.1292833 8.76534353,66.8092833 6.69566118,66.8092833 C4.62656118,66.8092833 2.94938471,65.1292833 2.94938471,63.0561167 C2.94938471,60.9841167 4.62656118,59.3035333 6.69566118,59.3035333 C8.76534353,59.3035333 10.44252,60.9841167 10.44252,63.0561167" id="Fill-25" fill="#414141"></path>
                    <path d="M12.6973906,58.4549 C12.6973906,60.5280667 11.0202141,62.2080667 8.95111412,62.2080667 C6.88201412,62.2080667 5.20425529,60.5280667 5.20425529,58.4549 C5.20425529,56.3817333 6.88201412,54.7017333 8.95111412,54.7017333 C11.0202141,54.7017333 12.6973906,56.3817333 12.6973906,58.4549" id="Fill-27" fill="#414141"></path>
                    <path d="M15.6585388,54.3559917 C15.6585388,56.4279917 13.9813624,58.1091583 11.91168,58.1091583 C9.84258,58.1091583 8.16540353,56.4279917 8.16540353,54.3559917 C8.16540353,52.282825 9.84258,50.602825 11.91168,50.602825 C13.9813624,50.602825 15.6585388,52.282825 15.6585388,54.3559917" id="Fill-29" fill="#414141"></path>
                    <path d="M19.40499,50.949325 C19.40499,53.021325 17.7278135,54.7019083 15.6587135,54.7019083 C13.5890312,54.7019083 11.9118547,53.021325 11.9118547,50.949325 C11.9118547,48.8761583 13.5890312,47.1961583 15.6587135,47.1961583 C17.7278135,47.1961583 19.40499,48.8761583 19.40499,50.949325" id="Fill-31" fill="#414141"></path>
                    <path d="M23.9989976,47.5914833 C23.9989976,49.66465 22.3218212,51.34465 20.2521388,51.34465 C18.1830388,51.34465 16.5058624,49.66465 16.5058624,47.5914833 C16.5058624,45.5183167 18.1830388,43.8383167 20.2521388,43.8383167 C22.3218212,43.8383167 23.9989976,45.5183167 23.9989976,47.5914833" id="Fill-33" fill="#414141"></path>
                    <path d="M29.0935376,45.4383417 C29.0935376,47.5115083 27.4163612,49.1915083 25.3466788,49.1915083 C23.2775788,49.1915083 21.6004024,47.5115083 21.6004024,45.4383417 C21.6004024,43.365175 23.2775788,41.685175 25.3466788,41.685175 C27.4163612,41.685175 29.0935376,43.365175 29.0935376,45.4383417" id="Fill-35" fill="#414141"></path>
                    <path d="M34.4383147,44.3507167 C34.4383147,46.4238833 32.7611382,48.1038833 30.6920382,48.1038833 C28.6229382,48.1038833 26.9451794,46.4238833 26.9451794,44.3507167 C26.9451794,42.27755 28.6229382,40.59755 30.6920382,40.59755 C32.7611382,40.59755 34.4383147,42.27755 34.4383147,44.3507167" id="Fill-37" fill="#414141"></path>
                    <path d="M37.1947076,34.81275 C37.1947076,36.8859167 35.5175312,38.5659167 33.4478488,38.5659167 C31.3787488,38.5659167 29.7015724,36.8859167 29.7015724,34.81275 C29.7015724,32.74075 31.3787488,31.0601667 33.4478488,31.0601667 C35.5175312,31.0601667 37.1947076,32.74075 37.1947076,34.81275" id="Fill-39" fill="#414141"></path>
                    <path d="M34.0251935,30.7138417 C34.0251935,32.7870083 32.3480171,34.4670083 30.2789171,34.4670083 C28.2098171,34.4670083 26.5320582,32.7870083 26.5320582,30.7138417 C26.5320582,28.6418417 28.2098171,26.960675 30.2789171,26.960675 C32.3480171,26.960675 34.0251935,28.6418417 34.0251935,30.7138417" id="Fill-41" fill="#414141"></path>
                    <path d="M32.0210841,26.112625 C32.0210841,28.184625 30.3433253,29.8657917 28.2742253,29.8657917 C26.2051253,29.8657917 24.5279488,28.184625 24.5279488,26.112625 C24.5279488,24.0394583 26.2051253,22.3594583 28.2742253,22.3594583 C30.3433253,22.3594583 32.0210841,24.0394583 32.0210841,26.112625" id="Fill-43" fill="#414141"></path>
                    <path d="M31.4919582,21.092925 C31.4919582,23.164925 29.8147818,24.8460917 27.7450994,24.8460917 C25.6759994,24.8460917 23.9988229,23.164925 23.9988229,21.092925 C23.9988229,19.0197583 25.6759994,17.3397583 27.7450994,17.3397583 C29.8147818,17.3397583 31.4919582,19.0197583 31.4919582,21.092925" id="Fill-45" fill="#414141"></path>
                    <path d="M32.8399888,15.9054583 C32.8399888,17.978625 31.1628124,19.658625 29.0937124,19.658625 C27.0246124,19.658625 25.3468535,17.978625 25.3468535,15.9054583 C25.3468535,13.8334583 27.0246124,12.152875 29.0937124,12.152875 C31.1628124,12.152875 32.8399888,13.8334583 32.8399888,15.9054583" id="Fill-47" fill="#414141"></path>
                    <path d="M35.7670694,11.3042417 C35.7670694,13.3774083 34.0898929,15.0574083 32.0207929,15.0574083 C29.9511106,15.0574083 28.2739341,13.3774083 28.2739341,11.3042417 C28.2739341,9.231075 29.9511106,7.551075 32.0207929,7.551075 C34.0898929,7.551075 35.7670694,9.231075 35.7670694,11.3042417" id="Fill-49" fill="#414141"></path>
                    <path d="M39.8595547,8.39988333 C39.8595547,10.4718833 38.1823782,12.15305 36.1126959,12.15305 C34.0435959,12.15305 32.3664194,10.4718833 32.3664194,8.39988333 C32.3664194,6.32671667 34.0435959,4.64671667 36.1126959,4.64671667 C38.1823782,4.64671667 39.8595547,6.32671667 39.8595547,8.39988333" id="Fill-51" fill="#414141"></path>
                    <path d="M43.6851476,6.0578 C43.6851476,8.1298 42.0079712,9.81038333 39.9388712,9.81038333 C37.8697712,9.81038333 36.1920124,8.1298 36.1920124,6.0578 C36.1920124,3.98463333 37.8697712,2.30463333 39.9388712,2.30463333 C42.0079712,2.30463333 43.6851476,3.98463333 43.6851476,6.0578" id="Fill-53" fill="#414141"></path>
                    <path d="M48.4341776,4.64665833 C48.4341776,6.719825 46.7570012,8.399825 44.6873188,8.399825 C42.6182188,8.399825 40.9410424,6.719825 40.9410424,4.64665833 C40.9410424,2.57349167 42.6182188,0.893491667 44.6873188,0.893491667 C46.7570012,0.893491667 48.4341776,2.57349167 48.4341776,4.64665833" id="Fill-55" fill="#414141"></path>
                    <path d="M14.1885635,110.91745 C14.1885635,112.98945 12.5113871,114.670033 10.4422871,114.670033 C8.37260471,114.670033 6.69542824,112.98945 6.69542824,110.91745 C6.69542824,108.844283 8.37260471,107.164283 10.4422871,107.164283 C12.5113871,107.164283 14.1885635,108.844283 14.1885635,110.91745" id="Fill-57" fill="#414141"></path>
                    <path d="M86.7708212,107.164225 C86.7708212,109.237392 88.4479976,110.917392 90.51768,110.917392 C92.58678,110.917392 94.2639565,109.237392 94.2639565,107.164225 C94.2639565,105.091058 92.58678,103.411058 90.51768,103.411058 C88.4479976,103.411058 86.7708212,105.091058 86.7708212,107.164225" id="Fill-59" fill="#414141"></path>
                    <path d="M88.5251594,102.032992 C88.5251594,104.106158 90.2029182,105.786158 92.2720182,105.786158 C94.3411182,105.786158 96.0182947,104.106158 96.0182947,102.032992 C96.0182947,99.959825 94.3411182,98.279825 92.2720182,98.279825 C90.2029182,98.279825 88.5251594,99.959825 88.5251594,102.032992" id="Fill-61" fill="#414141"></path>
                    <path d="M90.0163324,96.4280333 C90.0163324,98.5006167 91.6935088,100.1812 93.7631912,100.1812 C95.8322912,100.1812 97.5094676,98.5006167 97.5094676,96.4280333 C97.5094676,94.3548667 95.8322912,92.6748667 93.7631912,92.6748667 C91.6935088,92.6748667 90.0163324,94.3548667 90.0163324,96.4280333" id="Fill-63" fill="#414141"></path>
                    <path d="M91.2139412,90.5815167 C91.2139412,92.6535167 92.8911176,94.3346833 94.9608,94.3346833 C97.0299,94.3346833 98.7070765,92.6535167 98.7070765,90.5815167 C98.7070765,88.50835 97.0299,86.82835 94.9608,86.82835 C92.8911176,86.82835 91.2139412,88.50835 91.2139412,90.5815167" id="Fill-65" fill="#414141"></path>
                    <path d="M91.4747771,85.3101667 C91.4747771,87.3833333 93.1519535,89.0633333 95.2216359,89.0633333 C97.2907359,89.0633333 98.9679124,87.3833333 98.9679124,85.3101667 C98.9679124,83.2381667 97.2907359,81.5575833 95.2216359,81.5575833 C93.1519535,81.5575833 91.4747771,83.2381667 91.4747771,85.3101667" id="Fill-67" fill="#414141"></path>
                    <path d="M91.4747771,79.4544917 C91.4747771,81.5264917 93.1519535,83.207075 95.2216359,83.207075 C97.2907359,83.207075 98.9679124,81.5264917 98.9679124,79.4544917 C98.9679124,77.381325 97.2907359,75.701325 95.2216359,75.701325 C93.1519535,75.701325 91.4747771,77.381325 91.4747771,79.4544917" id="Fill-69" fill="#414141"></path>
                    <path d="M91.2139412,73.514 C91.2139412,75.5871667 92.8911176,77.2671667 94.9608,77.2671667 C97.0299,77.2671667 98.7070765,75.5871667 98.7070765,73.514 C98.7070765,71.442 97.0299,69.7608333 94.9608,69.7608333 C92.8911176,69.7608333 91.2139412,71.442 91.2139412,73.514" id="Fill-71" fill="#414141"></path>
                    <path d="M90.0163324,68.2435833 C90.0163324,70.3155833 91.6935088,71.99675 93.7631912,71.99675 C95.8322912,71.99675 97.5094676,70.3155833 97.5094676,68.2435833 C97.5094676,66.1704167 95.8322912,64.4904167 93.7631912,64.4904167 C91.6935088,64.4904167 90.0163324,66.1704167 90.0163324,68.2435833" id="Fill-73" fill="#414141"></path>
                    <path d="M88.5251594,63.0561167 C88.5251594,65.1292833 90.2029182,66.8092833 92.2720182,66.8092833 C94.3411182,66.8092833 96.0182947,65.1292833 96.0182947,63.0561167 C96.0182947,60.9841167 94.3411182,59.3035333 92.2720182,59.3035333 C90.2029182,59.3035333 88.5251594,60.9841167 88.5251594,63.0561167" id="Fill-75" fill="#414141"></path>
                    <path d="M86.2702888,58.4549 C86.2702888,60.5280667 87.9474653,62.2080667 90.0165653,62.2080667 C92.0862476,62.2080667 93.7634241,60.5280667 93.7634241,58.4549 C93.7634241,56.3817333 92.0862476,54.7017333 90.0165653,54.7017333 C87.9474653,54.7017333 86.2702888,56.3817333 86.2702888,58.4549" id="Fill-77" fill="#414141"></path>
                    <path d="M83.3096065,54.3559917 C83.3096065,56.4279917 84.9867829,58.1091583 87.0558829,58.1091583 C89.1249829,58.1091583 90.8027418,56.4279917 90.8027418,54.3559917 C90.8027418,52.282825 89.1249829,50.602825 87.0558829,50.602825 C84.9867829,50.602825 83.3096065,52.282825 83.3096065,54.3559917" id="Fill-79" fill="#414141"></path>
                    <path d="M79.5626894,50.949325 C79.5626894,53.021325 81.2398659,54.7019083 83.3095482,54.7019083 C85.3786482,54.7019083 87.0558247,53.021325 87.0558247,50.949325 C87.0558247,48.8761583 85.3786482,47.1961583 83.3095482,47.1961583 C81.2398659,47.1961583 79.5626894,48.8761583 79.5626894,50.949325" id="Fill-81" fill="#414141"></path>
                    <path d="M74.9686818,47.5914833 C74.9686818,49.66465 76.6458582,51.34465 78.7155406,51.34465 C80.7846406,51.34465 82.4618171,49.66465 82.4618171,47.5914833 C82.4618171,45.5183167 80.7846406,43.8383167 78.7155406,43.8383167 C76.6458582,43.8383167 74.9686818,45.5183167 74.9686818,47.5914833" id="Fill-83" fill="#414141"></path>
                    <path d="M69.8742,45.4383417 C69.8742,47.5115083 71.5513765,49.1915083 73.6210588,49.1915083 C75.6901588,49.1915083 77.3673353,47.5115083 77.3673353,45.4383417 C77.3673353,43.365175 75.6901588,41.685175 73.6210588,41.685175 C71.5513765,41.685175 69.8742,43.365175 69.8742,45.4383417" id="Fill-85" fill="#414141"></path>
                    <path d="M64.5293647,44.3507167 C64.5293647,46.4238833 66.2065412,48.1038833 68.2756412,48.1038833 C70.3453235,48.1038833 72.0225,46.4238833 72.0225,44.3507167 C72.0225,42.27755 70.3453235,40.59755 68.2756412,40.59755 C66.2065412,40.59755 64.5293647,42.27755 64.5293647,44.3507167" id="Fill-87" fill="#414141"></path>
                    <path d="M61.77303,34.81275 C61.77303,36.8859167 63.4502065,38.5659167 65.5198888,38.5659167 C67.5889888,38.5659167 69.2661653,36.8859167 69.2661653,34.81275 C69.2661653,32.74075 67.5889888,31.0601667 65.5198888,31.0601667 C63.4502065,31.0601667 61.77303,32.74075 61.77303,34.81275" id="Fill-89" fill="#414141"></path>
                    <path d="M64.9425441,30.7138417 C64.9425441,32.7870083 66.6197206,34.4670083 68.6888206,34.4670083 C70.7579206,34.4670083 72.4356794,32.7870083 72.4356794,30.7138417 C72.4356794,28.6418417 70.7579206,26.960675 68.6888206,26.960675 C66.6197206,26.960675 64.9425441,28.6418417 64.9425441,30.7138417" id="Fill-91" fill="#414141"></path>
                    <path d="M66.9471194,26.112625 C66.9471194,28.184625 68.6242959,29.8657917 70.6933959,29.8657917 C72.7624959,29.8657917 74.4402547,28.184625 74.4402547,26.112625 C74.4402547,24.0394583 72.7624959,22.3594583 70.6933959,22.3594583 C68.6242959,22.3594583 66.9471194,24.0394583 66.9471194,26.112625" id="Fill-93" fill="#414141"></path>
                    <path d="M67.4757212,21.092925 C67.4757212,23.164925 69.1528976,24.8460917 71.22258,24.8460917 C73.29168,24.8460917 74.9688565,23.164925 74.9688565,21.092925 C74.9688565,19.0197583 73.29168,17.3397583 71.22258,17.3397583 C69.1528976,17.3397583 67.4757212,19.0197583 67.4757212,21.092925" id="Fill-95" fill="#414141"></path>
                    <path d="M66.1276906,15.9054583 C66.1276906,17.978625 67.8048671,19.658625 69.8739671,19.658625 C71.9436494,19.658625 73.6208259,17.978625 73.6208259,15.9054583 C73.6208259,13.8334583 71.9436494,12.152875 69.8739671,12.152875 C67.8048671,12.152875 66.1276906,13.8334583 66.1276906,15.9054583" id="Fill-97" fill="#414141"></path>
                    <path d="M63.20061,11.3042417 C63.20061,13.3774083 64.8777865,15.0574083 66.9468865,15.0574083 C69.0165688,15.0574083 70.6937453,13.3774083 70.6937453,11.3042417 C70.6937453,9.231075 69.0165688,7.551075 66.9468865,7.551075 C64.8777865,7.551075 63.20061,9.231075 63.20061,11.3042417" id="Fill-99" fill="#414141"></path>
                    <path d="M59.1081829,8.39988333 C59.1081829,10.4718833 60.7853594,12.15305 62.8550418,12.15305 C64.9241418,12.15305 66.6013182,10.4718833 66.6013182,8.39988333 C66.6013182,6.32671667 64.9241418,4.64671667 62.8550418,4.64671667 C60.7853594,4.64671667 59.1081829,6.32671667 59.1081829,8.39988333" id="Fill-101" fill="#414141"></path>
                    <path d="M55.2825318,6.0578 C55.2825318,8.1298 56.9597082,9.81038333 59.0288082,9.81038333 C61.0979082,9.81038333 62.7756671,8.1298 62.7756671,6.0578 C62.7756671,3.98463333 61.0979082,2.30463333 59.0288082,2.30463333 C56.9597082,2.30463333 55.2825318,3.98463333 55.2825318,6.0578" id="Fill-103" fill="#414141"></path>
                    <path d="M50.5340259,4.64665833 C50.5340259,6.719825 52.2112024,8.399825 54.2803024,8.399825 C56.3494024,8.399825 58.0271612,6.719825 58.0271612,4.64665833 C58.0271612,2.57349167 56.3494024,0.893491667 54.2803024,0.893491667 C52.2112024,0.893491667 50.5340259,2.57349167 50.5340259,4.64665833" id="Fill-105" fill="#414141"></path>
                    <path d="M45.6911206,3.75345833 C45.6911206,5.826625 47.3682971,7.506625 49.4373971,7.506625 C51.5064971,7.506625 53.1842559,5.826625 53.1842559,3.75345833 C53.1842559,1.68029167 51.5064971,0.000291666667 49.4373971,0.000291666667 C47.3682971,0.000291666667 45.6911206,1.68029167 45.6911206,3.75345833" id="Fill-107" fill="#414141"></path>
                    <path d="M84.7791741,110.91745 C84.7791741,112.98945 86.4563506,114.670033 88.5254506,114.670033 C90.5951329,114.670033 92.2723094,112.98945 92.2723094,110.91745 C92.2723094,108.844283 90.5951329,107.164283 88.5254506,107.164283 C86.4563506,107.164283 84.7791741,108.844283 84.7791741,110.91745" id="Fill-109" fill="#414141"></path>
                    <g id="Group-113" transform="translate(34.358824, 147.961333)">
                        <mask id="mask-8" fill="white">
                            <use xlink:href="#path-7"></use>
                        </mask>
                        <g id="Clip-112"></g>
                        <polygon id="Fill-111" fill="#844C2C" mask="url(#mask-8)" points="15.0788065 0.0287 0.292282941 0.0287 0.292282941 40.83345 15.0788065 40.83345 29.8647476 40.83345 29.8647476 0.0287"></polygon>
                    </g>
                    <path d="M32.0891612,124.266742 C32.0891612,131.733408 26.1264494,137.786658 18.7719141,137.786658 C11.4167965,137.786658 5.45350235,131.733408 5.45350235,124.266742 C5.45350235,116.800658 11.4167965,110.747992 18.7719141,110.747992 C26.1264494,110.747992 32.0891612,116.800658 32.0891612,124.266742" id="Fill-114" fill="#844C2C"></path>
                    <path d="M93.4209424,124.266742 C93.4209424,131.733408 87.4593953,137.786658 80.1036953,137.786658 C72.7479953,137.786658 66.7858659,131.733408 66.7858659,124.266742 C66.7858659,116.800658 72.7479953,110.747992 80.1036953,110.747992 C87.4593953,110.747992 93.4209424,116.800658 93.4209424,124.266742" id="Fill-116" fill="#844C2C"></path>
                    <path d="M8.16557824,78.35485 L13.5634076,141.093517 C13.8138194,149.28935 20.8043841,155.509433 27.0448782,160.92335 C33.8421018,166.821433 39.3529076,170.074683 48.4055841,170.074683 L49.5411724,170.074683 C58.5926841,170.074683 64.1046547,166.821433 70.9012959,160.92335 C77.14179,155.509433 84.1329371,149.28935 84.3833488,141.093517 L90.7094488,78.35485 L8.16557824,78.35485 Z" id="Fill-118" fill="#8C5334"></path>
                    <path d="M55.3943435,131.578767 L51.4081376,117.822017 C51.0022376,116.420267 50.25042,115.5546 49.4374553,115.5546 C48.6244906,115.5546 47.8726729,116.420267 47.4673553,117.822017 L43.4811494,131.578767 C43.0746671,132.981683 43.0746671,133.90335 43.4811494,135.30685 C43.8870494,136.710933 45.3242965,137.03235 46.1372612,137.03235 L49.4374553,137.03235 L52.7376494,137.03235 C53.5511965,137.03235 54.9872788,136.710933 55.3943435,135.30685 C55.8002435,133.90335 55.8002435,132.981683 55.3943435,131.578767" id="Fill-120" fill="#844C2C"></path>
                    <path d="M34.7677518,116.695717 C34.7677518,120.160717 31.9625576,122.97005 28.5039635,122.97005 C25.0436224,122.97005 22.2395929,120.160717 22.2395929,116.695717 C22.2395929,113.230717 25.0436224,110.421383 28.5039635,110.421383 C31.9625576,110.421383 34.7677518,113.230717 34.7677518,116.695717" id="Fill-122" fill="#FFFFFF"></path>
                    <path d="M32.2736506,116.695717 C32.2736506,118.78055 30.5854094,120.472217 28.5034976,120.472217 C26.4210035,120.472217 24.7339271,118.78055 24.7339271,116.695717 C24.7339271,114.610883 26.4210035,112.919217 28.5034976,112.919217 C30.5854094,112.919217 32.2736506,114.610883 32.2736506,116.695717" id="Fill-124" fill="#414141"></path>
                    <path d="M76.6356088,116.695717 C76.6356088,120.160717 73.8304147,122.970633 70.3712382,122.970633 C66.9126441,122.970633 64.10745,120.160717 64.10745,116.695717 C64.10745,113.230717 66.9126441,110.4208 70.3712382,110.4208 C73.8304147,110.4208 76.6356088,113.230717 76.6356088,116.695717" id="Fill-126" fill="#FFFFFF"></path>
                    <path d="M74.1419735,116.695717 C74.1419735,118.78055 72.4537324,120.472217 70.3712382,120.472217 C68.2899088,120.472217 66.6010853,118.78055 66.6010853,116.695717 C66.6010853,114.610883 68.2899088,112.919217 70.3712382,112.919217 C72.4537324,112.919217 74.1419735,114.610883 74.1419735,116.695717" id="Fill-128" fill="#414141"></path>
                    <path d="M92.8780147,71.3193833 L8.94290294,69.2158833 C8.94290294,69.2158833 5.60718529,72.8051333 8.27203235,88.9751333 L6.01657941,89.47155 L11.1115853,113.1053 L14.0379088,92.38355 C22.7388441,81.9156333 40.3229912,82.3018 49.5888088,82.3659667 C69.6875559,82.5053833 79.7814794,88.8228833 84.5637618,93.6289667 L87.2408382,113.056883 L92.2147147,89.4394667 L92.8780147,71.3193833 Z" id="Fill-130" fill="#414141"></path>
                    <path d="M60.0969018,146.141975 C61.3099429,147.074725 57.1589312,153.925975 49.4369312,153.934142 C41.7155135,153.927725 37.5645018,147.074725 38.7781253,146.141975 C39.8176253,145.069225 44.1852724,147.565308 49.4369312,147.422392 C54.6891724,147.565308 59.0574018,145.069225 60.0969018,146.141975" id="Fill-132" fill="#72482D"></path>
                    <path d="M53.6998712,144.794417 C51.9044771,145.189917 50.9680535,145.895167 49.5174124,145.899833 C48.0446418,145.903917 47.0598829,145.203917 45.1736418,144.794417 C41.26023,143.94625 37.3025594,146.020583 37.7154476,146.812167 C37.8231829,147.042583 38.1743418,147.198333 38.6833182,147.320833 C45.5842006,150.096333 53.2904771,150.096333 60.1907771,147.320833 C60.7009182,147.198333 61.0509124,147.042583 61.1598124,146.812167 C61.5727006,146.020583 57.6284241,144.020333 53.6998712,144.794417" id="Fill-134" fill="#6D462E"></path>
                    <path d="M15.0332665,104.6941 C17.4919606,101.106017 24.9437488,96.2661 36.1348253,99.52985 C37.8894547,100.043183 38.5853665,101.43035 38.0833782,102.598767 C37.6029371,103.713517 35.9397371,104.03435 34.6888429,103.606183 C24.1791194,100.005267 14.0077429,106.189767 15.0332665,104.6941" id="Fill-136" fill="#414141"></path>
                    <path d="M83.8419353,104.6941 C81.3832412,101.106017 73.9314529,96.2661 62.7403765,99.52985 C60.9857471,100.043183 60.2898353,101.43035 60.7918235,102.598767 C61.2722647,103.713517 62.9348824,104.03435 64.1863588,103.606183 C74.6966647,100.005267 84.8674588,106.189767 83.8419353,104.6941" id="Fill-138" fill="#414141"></path>
                    <path d="M70.2928535,130.510508 L70.2922712,130.510508 C69.6971065,130.510508 69.0629241,130.498842 68.29713,130.472008 C64.3336359,130.337258 60.5262124,128.427425 58.1106124,125.362592 C56.59533,123.439925 55.0282182,120.331925 55.1441065,115.773175 C55.2023418,113.484175 56.5493241,111.418008 58.6195888,110.446175 C61.1132241,109.276008 65.0831241,108.010175 70.6981712,107.906925 C70.9811947,107.902258 71.2601418,107.899925 71.53443,107.899925 C76.91013,107.899925 80.2277947,108.885758 81.9760182,111.003258 C83.5891359,112.955675 83.9560182,116.089342 83.1005418,120.583342 C81.5311006,128.821758 76.8454888,130.510508 70.2928535,130.510508 M40.4839535,125.362592 C38.0689359,128.427425 34.26093,130.337258 30.2968535,130.472008 C29.5316418,130.498842 28.8974594,130.510508 28.3022947,130.510508 L28.30113,130.510508 C21.7490771,130.510508 17.0634653,128.821758 15.4940241,120.583342 C14.6385476,116.089342 15.0060124,112.955675 16.6179653,111.003258 C18.3667712,108.885758 21.6850182,107.899925 27.0601359,107.899925 C27.3338418,107.899925 27.6127888,107.902258 27.8969771,107.906925 C33.5114418,108.010175 37.4807594,109.276008 39.9749771,110.446175 C42.0446594,111.418008 43.3922241,113.484175 43.4504594,115.773175 C43.5657653,120.331925 41.9992359,123.439925 40.4839535,125.362592 M90.4399359,109.434675 C86.1014065,108.033508 81.6231124,107.105425 77.0860006,106.667342 L75.7925947,106.541925 L75.7943418,106.543092 C74.5213182,106.373342 73.1062006,106.287592 71.53443,106.287592 C71.2508241,106.287592 70.9619771,106.291092 70.6690535,106.296925 C61.5167947,106.462592 56.5167124,109.533842 54.8622476,110.775758 C53.8879712,110.544175 51.1287829,109.935175 49.2972829,109.989425 C47.4652006,109.935175 44.7065947,110.544175 43.7323182,110.775758 C42.0772712,109.533842 37.0777712,106.462592 27.9255124,106.296925 C27.6325888,106.291092 27.3437418,106.287592 27.0601359,106.287592 C25.4883653,106.287592 24.0726653,106.373342 22.8002241,106.543092 L22.8013888,106.541925 L21.5085653,106.667342 C16.9708712,107.105425 12.4931594,108.033508 8.15463,109.435258 C7.91586529,109.511675 7.75397118,109.735092 7.75397118,109.985342 L7.75397118,111.977425 C7.75397118,112.242842 7.93450059,112.474425 8.19248294,112.538592 C8.36136529,112.581175 8.57567118,112.633675 8.82841235,112.696675 C10.69893,113.158092 12.1484065,114.648508 12.5636241,116.531508 C13.1919829,119.389258 13.8308241,121.397675 14.3467888,122.750425 C15.3117476,126.224758 16.9708712,128.661342 19.3905476,130.168675 C22.17303,131.900592 25.6141535,132.121675 28.30113,132.121675 L28.3022947,132.121675 C28.9160947,132.121675 29.5677476,132.109425 30.3515947,132.083175 C34.7827182,131.932675 39.0420476,129.793592 41.7464947,126.360675 C43.5314065,124.095592 45.3856182,120.368675 45.0193182,114.877175 C46.1036594,112.801675 49.2972829,112.922425 49.2972829,112.922425 C49.2972829,112.922425 52.4903241,112.801675 53.5746653,114.877175 C53.2089476,120.368675 55.0625771,124.095592 56.8480712,126.360675 C59.5519359,129.793592 63.8118476,131.932675 68.2429712,132.083175 C69.0268182,132.109425 69.6784712,132.121675 70.2922712,132.121675 L70.2928535,132.121675 C72.97983,132.121675 76.4209535,131.900592 79.2040182,130.168675 C81.6231124,128.661342 83.2822359,126.224758 84.2477771,122.749842 C84.7637418,121.397675 85.4025829,119.388092 86.0315241,116.531508 C86.4461594,114.648508 87.8950535,113.158092 89.7661535,112.696675 C90.0183124,112.633675 90.2332006,112.581175 90.4020829,112.538592 C90.6600653,112.474425 90.8405947,112.242842 90.8405947,111.977425 L90.8405947,109.985342 C90.8405947,109.735092 90.6787006,109.511675 90.4399359,109.434675" id="Fill-140" fill="#FFA91F"></path>
                </g>
                <g id="Page-1" transform="translate(0.000000, 45.000000)">
                    <path d="M0.631454211,140.045829 C0.221843684,140.2024 -0.0340194737,140.6104 0.00384368421,141.045257 C0.0417068421,141.480686 0.360101579,141.861829 0.794380526,141.923543 C31.3396226,146.297829 108.695775,150.2944 108.695775,74.8098286 C108.695775,0.286971429 73.8783068,0.000114285714 56.44347,0.000114285714 C28.0260226,0.000114285714 8.66877,25.5606857 13.0953174,65.4269714 C17.5625963,105.665829 20.8710332,132.307543 0.631454211,140.045829" id="Fill-1" fill="#66544F"></path>
                    <polygon id="Fill-3" fill="#FFBF8F" points="61.1859453 96.6661143 47.6578979 96.6661143 47.6578979 143.233543 61.1859453 143.233543 74.7139926 143.233543 74.7139926 96.6661143"></polygon>
                    <path d="M46.6892321,80.6041143 C46.6892321,87.3972571 41.2334953,92.9041143 34.5041795,92.9041143 C27.7754374,92.9041143 22.3202742,87.3972571 22.3202742,80.6041143 C22.3202742,73.8109714 27.7754374,68.3041143 34.5041795,68.3041143 C41.2334953,68.3041143 46.6892321,73.8109714 46.6892321,80.6041143" id="Fill-5" fill="#FFC79A"></path>
                    <path d="M100.052247,80.6041143 C100.052247,87.3972571 94.5970842,92.9041143 87.8671947,92.9041143 C81.1384526,92.9041143 75.6827158,87.3972571 75.6827158,80.6041143 C75.6827158,73.8109714 81.1384526,68.3041143 87.8671947,68.3041143 C94.5970842,68.3041143 100.052247,73.8109714 100.052247,80.6041143" id="Fill-7" fill="#FFC79A"></path>
                    <path d="M24.6168468,31.7242286 L28.3090784,94.0453714 C28.5287995,101.501943 34.5926416,108.530514 40.0644416,113.4568 C46.0238732,118.822514 50.8565889,121.781943 58.7929363,121.781943 L62.6211311,121.781943 C70.5580521,121.781943 75.3907679,118.822514 81.3501995,113.4568 C86.8219995,108.530514 92.8858416,101.501943 93.1049889,94.0453714 L96.3623679,49.7419429 L90.2279626,31.7242286 L24.6168468,31.7242286 Z" id="Fill-9" fill="#FFD0A5"></path>
                    <path d="M66.3753205,89.4985143 L62.9033837,73.4545143 C62.5488468,71.8185143 61.8948468,70.8105143 61.1857732,70.8105143 C60.4778468,70.8105143 59.8226995,71.8185143 59.46931,73.4545143 L55.9967995,89.4985143 C55.6428363,91.1350857 55.6428363,92.2099429 55.9967995,93.8470857 C56.3507626,95.4830857 57.6025416,95.8602286 58.3110416,95.8602286 L61.1857732,95.8602286 L64.0616521,95.8602286 C64.7695784,95.8602286 66.0207837,95.4830857 66.3753205,93.8470857 C66.7298574,92.2099429 66.7298574,91.1350857 66.3753205,89.4985143" id="Fill-11" fill="#FFBF8F"></path>
                    <path d="M31.38001,60.8180571 C33.1899837,58.1912 38.6744047,54.6489143 46.9113626,57.0380571 C48.2032995,57.4134857 48.7155995,58.4289143 48.3455732,59.2837714 C47.99161,60.0997714 46.7673679,60.3352 45.8471784,60.0214857 C38.1116205,57.3854857 30.6256153,61.9123429 31.38001,60.8180571" id="Fill-13" fill="#584845"></path>
                    <path d="M90.3286442,60.4783429 C88.5186705,57.8520571 83.0348232,54.3092 74.7978653,56.6989143 C73.5059284,57.0737714 72.9936284,58.0903429 73.3636547,58.9452 C73.7170442,59.7606286 74.9412863,59.9954857 75.8620495,59.6829143 C83.5976074,57.0457714 91.0830389,61.5737714 90.3286442,60.4783429" id="Fill-15" fill="#584845"></path>
                    <path d="M70.9167195,101.854286 C72.02393,102.426286 68.2347458,107.896 61.1864616,107.9 C54.1376037,107.896571 50.3478458,102.427429 51.45563,101.854286 C52.4045037,101.196 56.3916089,102.728 61.1864616,102.64 C65.9807405,102.728 69.9678458,101.196 70.9167195,101.854286" id="Fill-17" fill="#EC8F6F"></path>
                    <path d="M84.9594189,34.7721143 C84.9594189,34.7721143 66.3359084,51.7886857 27.8824295,54.6098286 L26.6289295,71.8481143 C26.6289295,71.8481143 18.6937295,54.9921143 16.8659716,54.9921143 C16.8659716,38.1412571 24.9468874,24.4264 24.9468874,24.4264 L99.6474558,27.2475429 L99.0175505,68.8869714 L95.5364347,70.0412571 C95.5364347,70.0412571 94.2967032,44.2538286 84.9594189,34.7721143" id="Fill-19" fill="#66544F"></path>
                    <path d="M90.2776437,79.3559429 C88.27147,81.6393714 84.5029384,82.7028 78.4172963,82.7028 C73.8565068,82.7028 70.5715911,81.2508 68.6549121,78.3873714 C67.0107332,75.9302286 66.6493121,72.8490857 66.7273332,70.5045143 C66.7933068,68.5130857 68.0255805,66.7433714 69.8745647,65.9833714 C72.89157,64.7422286 76.4966016,64.1165143 80.6391753,64.1165143 C83.0727437,64.1165143 85.3542858,64.3370857 87.2440016,64.6130857 C90.0160437,65.0159429 92.1105647,67.2993714 92.2723437,70.0856571 C92.5127174,74.2359429 92.0652437,77.3210857 90.2776437,79.3559429 M53.4138437,78.3879429 C51.4971647,81.2519429 48.2128226,82.7028 43.6520332,82.7028 C37.5663911,82.7028 33.7978595,81.6393714 31.7916858,79.3559429 C30.0040858,77.3210857 29.5560384,74.2370857 29.7969858,70.0862286 C29.9587647,67.2999429 32.0527121,65.0165143 34.8247542,64.6136571 C36.71447,64.3382286 38.9965858,64.1165143 41.4301542,64.1165143 C45.5727279,64.1165143 49.1777595,64.7428 52.1947647,65.9833714 C54.0437489,66.7439429 55.2754489,68.5130857 55.3419963,70.5056571 C55.4200174,72.8496571 55.0580226,75.9308 53.4138437,78.3879429 M96.7637174,64.2210857 L87.0346068,62.9930857 C85.1775911,62.7405143 82.9866911,62.5456571 80.6391753,62.5456571 C77.4047437,62.5456571 74.4726437,62.9159429 71.8618068,63.6485143 L71.8692647,63.6428 L71.8147647,63.6599429 C71.3609805,63.7890857 70.9175226,63.9296571 70.4838174,64.0788 L66.9642647,65.1850857 C65.0458647,65.7885143 63.0460016,66.0948 61.0346647,66.0948 L61.0346647,66.0959429 C59.0233279,66.0959429 57.0234647,65.7885143 55.1050647,65.1856571 L51.5855121,64.0788 C51.1518068,63.9296571 50.7083489,63.7890857 50.2545647,63.6605143 L50.2000647,63.6433714 L50.2075226,63.6485143 C47.5966858,62.9170857 44.6645858,62.5456571 41.4301542,62.5456571 C39.0826384,62.5456571 36.8917384,62.7416571 35.0347226,62.9942286 L25.3056121,64.2222286 C24.6395647,64.3050857 24.1398858,64.8696571 24.1398858,65.5382286 L24.1398858,70.2959429 L24.1410332,70.2965143 C26.3910226,71.6130857 28.0013542,73.7885143 28.5985595,76.3188 C28.9743226,77.9096571 29.6157016,79.2650857 30.6053068,80.3902286 C32.93217,83.0399429 37.0781858,84.2736571 43.6514595,84.2736571 C48.7727384,84.2736571 52.4982437,82.5868 54.7258595,79.2593714 C55.3678121,78.2993714 55.8365121,77.2633714 56.1715437,76.2090857 C56.50887,75.1485143 56.9534753,74.0862286 57.4743805,73.1033714 L57.56617,72.9296571 C58.2448384,71.6479429 59.5803753,70.8468 61.0346647,70.8468 L61.0346647,70.8456571 C62.4889542,70.8456571 63.8244911,71.6479429 64.5031595,72.9285143 L64.5949489,73.1028 C65.1158542,74.0862286 65.5604595,75.1485143 65.8977858,76.2090857 C66.2328174,77.2628 66.7015174,78.2993714 67.34347,79.2582286 C69.5705121,82.5862286 73.2965911,84.2736571 78.4172963,84.2736571 C84.9911437,84.2736571 89.1365858,83.0399429 91.4640226,80.3896571 C92.4536279,79.2639429 93.0955805,77.9096571 93.4701963,76.3176571 C94.0679753,73.7885143 95.6783068,71.6125143 97.9282963,70.2959429 L97.9294437,70.2959429 L97.9294437,65.5376571 C97.9294437,64.8696571 97.4297647,64.3050857 96.7637174,64.2210857" id="Fill-21" fill="#E76C63"></path>
                    <path d="M47.2597611,72.7261714 C46.6453453,73.0770286 45.9316821,72.8804571 45.0935295,72.2621714 C42.9519663,70.6256 39.9143084,70.6256 37.7727453,72.2616 C36.9345926,72.8793143 36.2478926,73.0238857 35.6340505,72.6730286 C35.0202084,72.3341714 34.9582505,71.2033143 36.2232242,70.2410286 C39.2712084,67.9107429 43.5944926,67.9113143 46.6436242,70.2416 C47.9085979,71.2038857 47.8736032,72.3873143 47.2597611,72.7261714" id="Fill-23" fill="#725E58"></path>
                    <path d="M84.8262668,72.7261714 C84.2118511,73.0770286 83.4987616,72.8804571 82.6600353,72.2621714 C80.5190458,70.6256 77.4819616,70.6256 75.3403984,72.2616 C74.5005247,72.8793143 73.8143984,73.0238857 73.2005563,72.6730286 C72.5872879,72.3341714 72.5241826,71.2033143 73.78973,70.2410286 C76.8382879,67.9107429 81.1615721,67.9113143 84.2107037,70.2416 C85.4751037,71.2038857 85.4406826,72.3873143 84.8262668,72.7261714" id="Fill-25" fill="#725E58"></path>
                </g>
                <g id="Page-1" transform="translate(167.000000, 42.000000)">
                    <g id="Group-36" transform="translate(0.000000, 0.528327)">
                        <path d="M25.0793781,83.8359268 C25.0793781,91.7432187 19.4647994,98.1530163 12.5394904,98.1530163 C5.61418146,98.1530163 0.000170224719,91.7432187 0.000170224719,83.8359268 C0.000170224719,75.928635 5.61418146,69.5188374 12.5394904,69.5188374 C19.4647994,69.5188374 25.0793781,75.928635 25.0793781,83.8359268" id="Fill-1" fill="#FFD79A"></path>
                        <path d="M100.731499,83.8359268 C100.731499,91.7432187 95.1186225,98.1530163 88.1927461,98.1530163 C81.2674371,98.1530163 75.6534258,91.7432187 75.6534258,83.8359268 C75.6534258,75.928635 81.2674371,69.5188374 88.1927461,69.5188374 C95.1186225,69.5188374 100.731499,75.928635 100.731499,83.8359268" id="Fill-3" fill="#FFD79A"></path>
                        <polygon id="Fill-5" fill="#FFD79A" points="50.3651253 106.123026 33.5611084 106.123026 33.5611084 145.431679 50.3651253 145.431679 67.170277 145.431679 67.170277 106.123026"></polygon>
                        <path d="M93.1112758,88.5228109 C93.1112758,110.839223 75.0419219,128.929589 52.7526972,128.929589 L47.9795961,128.929589 C25.6898039,128.929589 7.62045,110.839223 7.62045,88.5228109 L7.62045,33.7699704 L93.1112758,33.7699704 L93.1112758,88.5228109 Z" id="Fill-7" fill="#FFE6BC"></path>
                        <path d="M31.2974034,58.9625829 C31.4381225,60.5827852 30.2414427,62.0121082 28.6226056,62.1541315 L19.0724315,62.9909331 C17.4524596,63.1323883 16.0259764,61.9331432 15.8841225,60.3123728 C15.7422685,58.6916023 16.9400831,57.2622794 18.5589202,57.1208241 L28.1096618,56.2840226 C29.7284989,56.1419992 31.1561169,57.3418125 31.2974034,58.9625829" id="Fill-9" fill="#414141"></path>
                        <path d="M84.8480006,60.3125432 C84.7061466,61.9333136 83.2796635,63.1325588 81.6596916,62.9905354 L72.1100848,62.1537339 C70.4918152,62.0122786 69.2934331,60.5829556 69.4347197,58.9627533 C69.5765736,57.3414148 71.0036242,56.1421696 72.6230287,56.2836249 L82.1726354,57.1204265 C83.7920399,57.2624498 84.9904219,58.6917728 84.8480006,60.3125432" id="Fill-11" fill="#414141"></path>
                        <path d="M57.9524949,96.7559611 C58.4705455,95.6930584 58.4705455,94.3841712 57.9524949,93.3212685 L52.8758264,82.9030039 C52.3589107,81.8406693 51.4022478,81.1856576 50.3661466,81.1856576 C49.3300455,81.1856576 48.3733826,81.8406693 47.8564669,82.9030039 L42.7792309,93.3212685 C42.2611803,94.3841712 42.2611803,95.6930584 42.7792309,96.7559611 C43.296714,97.8188638 45.1260624,98.063144 46.1621635,98.063144 L50.3661466,98.063144 L54.5689949,98.063144 C55.6050961,98.063144 57.4350118,97.8188638 57.9524949,96.7559611" id="Fill-13" fill="#FFE0AA"></path>
                        <path d="M7.11993258,84.3278957 C7.11993258,84.567063 7.30604494,84.7653276 7.54435955,84.77953 C7.78324157,84.7937323 7.99148315,84.6198957 8.02042135,84.3824327 L11.729618,54.2234911 C11.8697697,53.4099813 12.4286742,52.8305261 13.0738258,52.8305261 L17.3850506,52.8305261 C18.1459551,52.8305261 18.762736,52.0334911 18.762736,51.0506895 L18.762736,37.7039035 L7.11993258,37.7039035 L7.11993258,84.3278957 Z" id="Fill-15" fill="#414141"></path>
                        <path d="M82.1435837,37.7037899 L82.1435837,51.0505759 C82.1435837,52.0333774 82.7603646,52.8309805 83.5212691,52.8309805 L87.8324938,52.8309805 C88.4776455,52.8309805 89.03655,53.4098677 89.1767017,54.2239455 L92.8864657,84.3828872 C92.9154039,84.6197821 93.1242129,84.7930506 93.3619601,84.7788482 C93.6002747,84.7640778 93.7863871,84.5669494 93.7863871,84.3277821 L93.7863871,37.7037899 L82.1435837,37.7037899 Z" id="Fill-17" fill="#414141"></path>
                        <path d="M93.7863303,31.735628 C93.7863303,39.4474957 74.3852517,45.6987953 50.4533584,45.6987953 C26.5208978,45.6987953 7.1198191,39.4474957 7.1198191,31.735628 C7.1198191,24.0237603 26.5208978,17.7718926 50.4533584,17.7718926 C74.3852517,17.7718926 93.7863303,24.0237603 93.7863303,31.735628" id="Fill-19" fill="#414141"></path>
                        <path d="M18.7626225,46.0891891 C18.7626225,46.0891891 19.2114483,42.055158 22.2210213,42.3295471 C19.4015326,37.0900218 17.1318697,36.8468778 17.1318697,36.8468778 L18.7626225,46.0891891 Z" id="Fill-21" fill="#414141"></path>
                        <path d="M82.1435837,46.0891891 C82.1435837,46.0891891 81.6947579,42.055158 78.6851848,42.3295471 C81.505241,37.0900218 83.7743365,36.8468778 83.7743365,36.8468778 L82.1435837,46.0891891 Z" id="Fill-23" fill="#414141"></path>
                        <path d="M88.6790781,18.9893167 L12.2271848,18.9893167 C9.40656124,18.9893167 7.11987584,21.278165 7.11987584,24.1021572 L7.11987584,43.981449 L9.64374101,39.9281027 L93.7863871,39.9281027 L93.7863871,24.1021572 C93.7863871,21.278165 91.4997017,18.9893167 88.6790781,18.9893167" id="Fill-25" fill="#414141"></path>
                        <g id="Group-29" transform="translate(6.808989, 0.000000)">
                            <mask id="mask-10" fill="white">
                                <use xlink:href="#path-9"></use>
                            </mask>
                            <g id="Clip-28"></g>
                            <path d="M81.0839916,0.933775097 C81.0431376,0.529292607 80.7770197,0.191277043 80.4104691,0.0787945525 C80.044486,-0.0342560311 79.6495646,0.100950195 79.4140871,0.42078677 C77.4905478,3.02265447 69.7776657,6.60675564 37.9689073,6.60675564 C-6.68330618,6.60675564 0.573373596,27.6137128 0.573373596,27.6137128 C0.573373596,27.6137128 23.3732725,28.6584366 54.3694916,27.6137128 C78.8313511,26.1338296 81.7989354,8.08038988 81.0839916,0.933775097" id="Fill-27" fill="#414141" mask="url(#mask-10)"></path>
                        </g>
                        <path d="M87.2196281,0.0787377432 C87.2196281,0.0787377432 92.8620101,2.2897572 90.4442517,13.4982397 C88.6347629,21.8838661 79.9374146,23.6324576 79.9374146,23.6324576 L57.7577011,27.3614226 C57.7577011,27.3614226 87.1634539,4.49452763 87.2196281,0.0787377432" id="Fill-30" fill="#414141"></path>
                        <path d="M32.9149354,75.4982475 C32.1858062,75.9169323 31.3380871,75.6823097 30.3428399,74.9443564 C27.80025,72.9912514 24.194323,72.9912514 21.6517331,74.9443564 C20.656486,75.6811735 19.841677,75.8533058 19.1125478,75.4351891 C18.383986,75.0307066 18.3102219,73.6809167 19.8121713,72.5328 C23.4305815,69.7519829 28.5634242,69.7519829 32.1829691,72.5333681 C33.685486,73.6820529 33.6434972,75.093765 32.9149354,75.4982475" id="Fill-32" fill="#414141"></path>
                        <path d="M81.6317747,75.4982475 C80.9026455,75.9169323 80.0554938,75.6823097 79.0596792,74.9443564 C76.5182242,72.9912514 72.9122972,72.9912514 70.3697073,74.9443564 C69.3727579,75.6811735 68.5585163,75.8533058 67.8299545,75.4351891 C67.1019601,75.0307066 67.0264938,73.6809167 68.5290107,72.5328 C72.1485556,69.7519829 77.2813983,69.7519829 80.9009433,72.5333681 C82.4023253,73.6820529 82.3609039,75.093765 81.6317747,75.4982475" id="Fill-34" fill="#414141"></path>
                    </g>
                    <g id="Group-43" transform="translate(36.882022, 105.057510)">
                        <g id="Group-39">
                            <mask id="mask-12" fill="white">
                                <use xlink:href="#path-11"></use>
                            </mask>
                            <g id="Clip-38"></g>
                            <path d="M26.5568719,0.82106537 C28.044636,1.96463735 22.953782,10.4621782 13.4841809,10.4712677 C4.01401236,10.4633144 -1.07684157,1.96520545 0.410355056,0.82106537 C1.68590562,-0.493502724 7.04231011,2.56511206 13.4841809,2.39070739 C19.9254843,2.56511206 25.2824562,-0.493502724 26.5568719,0.82106537" id="Fill-37" fill="#F2A187" mask="url(#mask-12)"></path>
                        </g>
                        <g id="Group-42">
                            <mask id="mask-14" fill="white">
                                <use xlink:href="#path-13"></use>
                            </mask>
                            <g id="Clip-41"></g>
                            <path d="M26.5568719,0.39079144 C28.044636,0.962293385 22.953782,4.54696265 13.4841809,4.55207549 C4.01401236,4.54753074 -1.07684157,0.962861479 0.410355056,0.39079144 C1.68590562,-0.266492607 7.04231011,1.26281479 13.4841809,1.1758965 C19.9254843,1.26281479 25.2824562,-0.266492607 26.5568719,0.39079144" id="Fill-40" fill="#FFFFFF" mask="url(#mask-14)"></path>
                        </g>
                    </g>
                </g>
                <g id="Page-1" transform="translate(485.000000, 37.000000)">
                    <g id="Group-3" transform="translate(0.000000, 0.443050)">
                        <mask id="mask-16" fill="white">
                            <use xlink:href="#path-15"></use>
                        </mask>
                        <g id="Clip-2"></g>
                        <path d="M123.43194,101.66473 C119.500204,80.6119353 115.566713,59.5585554 111.634977,38.5057609 C107.033525,17.3177686 87.2327132,0.14181124 67.4102604,0.14181124 L56.3034868,0.14181124 C36.4816189,0.14181124 16.6796377,17.3177686 12.0793547,38.5057609 C8.14644906,59.5585554 4.2141283,80.6119353 0.282392453,101.66473 C-0.629475472,106.546478 0.694750943,111.585664 3.86669434,115.405145 C7.03922264,119.223455 11.7424491,121.435195 16.7059585,121.435195 L107.007204,121.435195 C111.974223,121.435195 116.685638,119.229893 119.859921,115.408656 C123.034789,111.58742 124.344977,106.548819 123.43194,101.66473" id="Fill-1" fill="#414141" mask="url(#mask-16)"></path>
                    </g>
                    <g id="Group-6" transform="translate(46.207547, 97.012818)">
                        <mask id="mask-18" fill="white">
                            <use xlink:href="#path-17"></use>
                        </mask>
                        <g id="Clip-5"></g>
                        <polygon id="Fill-4" fill="#FFD79A" mask="url(#mask-18)" points="15.6503792 0.101486047 0.108850943 0.101486047 0.108850943 53.8451953 15.6503792 53.8451953 31.1924925 53.8451953 31.1924925 0.101486047"></polygon>
                    </g>
                    <path d="M45.2034396,87.1999248 C45.2034396,94.644576 38.9361755,100.678723 31.2054774,100.678723 C23.4741943,100.678723 17.2069302,94.644576 17.2069302,87.1999248 C17.2069302,79.7570295 23.4741943,73.7222969 31.2054774,73.7222969 C38.9361755,73.7222969 45.2034396,79.7570295 45.2034396,87.1999248" id="Fill-7" fill="#FFD79A"></path>
                    <path d="M106.5098,87.1999248 C106.5098,94.644576 100.242536,100.678723 92.5106679,100.678723 C84.7793849,100.678723 78.5132906,94.644576 78.5132906,87.1999248 C78.5132906,79.7570295 84.7793849,73.7222969 92.5106679,73.7222969 C100.242536,73.7222969 106.5098,79.7570295 106.5098,87.1999248" id="Fill-9" fill="#FFD79A"></path>
                    <path d="M20.6458245,28.4898372 L24.8887302,100.415 C25.1408245,109.019659 32.106466,117.132105 38.3924472,122.818016 C45.2399377,129.009601 50.7918623,132.425244 59.9093717,132.425244 L64.3072774,132.425244 C73.4259566,132.425244 78.9767113,129.009601 85.823617,122.818016 C92.1095981,117.132105 99.0764094,109.019659 99.3285038,100.415 L103.070145,49.2851124 L96.0232019,28.4898372 L20.6458245,28.4898372 Z" id="Fill-11" fill="#FFE6BC"></path>
                    <path d="M68.5880849,96.0074973 L64.0848962,86.7707453 C63.6263302,85.8278733 62.778217,85.2478694 61.8587453,85.2478694 C60.9386887,85.2478694 60.0911604,85.8278733 59.6314245,86.7707453 L55.1288208,96.0074973 C54.6685,96.9497841 54.6685,98.1109624 55.1288208,99.0532492 C55.5868019,99.9949508 57.2105,100.212086 58.1293868,100.212086 L61.8587453,100.212086 L65.5875189,100.212086 C66.5064057,100.212086 68.1301038,99.9949508 68.5880849,99.0532492 C69.0478208,98.1109624 69.0478208,96.9497841 68.5880849,96.0074973" id="Fill-13" fill="#FFE0AA"></path>
                    <polygon id="Fill-15" fill="#414141" points="22.9803585 76.0084837 27.2723962 52.5625147 17.8671132 55.2799295"></polygon>
                    <polygon id="Fill-17" fill="#414141" points="101.397725 76.0084837 97.104517 52.5625147 106.5098 55.2799295"></polygon>
                    <path d="M17.468266,57.8694624 L105.600681,57.8694624 C105.600681,57.8694624 108.295342,27.0268345 102.860398,24.5663539 C97.4248698,22.1076291 23.8624547,15.7820167 20.4354925,21.7552957 C17.0085302,27.7297453 17.468266,57.8694624 17.468266,57.8694624" id="Fill-19" fill="#414141"></path>
                    <path d="M26.9433283,67.7517101 C29.022083,64.7205899 35.3226868,60.6324698 44.7852906,63.3896829 C46.270366,63.8227837 46.8581962,64.9950822 46.4335547,65.9824349 C46.0270453,66.9235512 44.6209321,67.1945318 43.5628377,66.8340047 C34.6769509,63.7905938 26.0759132,69.0164814 26.9433283,67.7517101" id="Fill-21" fill="#414141"></path>
                    <path d="M96.7734604,67.3603391 C94.692366,64.329219 88.3929321,60.2399283 78.9297434,62.998312 C77.4458377,63.4308275 76.8568377,64.6037112 77.2826491,65.5898934 C77.6891585,66.5321802 79.0941019,66.8031609 80.1527811,66.4414632 C89.0398377,63.3992229 97.6391208,68.6239399 96.7734604,67.3603391" id="Fill-23" fill="#414141"></path>
                    <path d="M61.9053623,10.7359244 C36.8637962,10.7359244 16.5623057,31.0495213 16.5623057,56.1079128 C16.5623057,56.6077345 16.5704943,57.1063857 16.5892113,57.6026957 C16.5985698,57.8818702 16.8138151,58.1107112 17.0922302,58.1364632 C17.3700604,58.1622151 17.6244943,57.9766841 17.6859094,57.7045329 C22.2423245,37.4676066 40.3036264,22.3488779 61.9053623,22.3488779 C83.5082679,22.3488779 101.5684,37.4676066 106.125985,57.7045329 C106.1874,57.9766841 106.441834,58.1622151 106.719079,58.1352926 C106.996909,58.1095407 107.213325,57.8812849 107.222098,57.6026957 C107.24023,57.1063857 107.249004,56.6077345 107.249004,56.1079128 C107.249004,31.0495213 86.9480981,10.7359244 61.9053623,10.7359244" id="Fill-25" fill="#8F3B68"></path>
                    <path d="M85.6542868,23.3817062 C85.6542868,23.3817062 87.761117,13.4988147 85.6542868,11.3906674 C83.5468717,9.28252016 76.4361736,-0.336413953 75.7775698,3.08917907 C75.118966,6.51535736 75.3435698,14.3421907 77.3579849,16.6616209 C79.9918151,19.6921558 85.1272868,26.4175085 85.6542868,23.3817062" id="Fill-27" fill="#CE4C7B"></path>
                    <path d="M86.3752415,23.9351973 C86.3752415,23.9351973 95.1804113,18.9884841 97.8183358,20.3755771 C100.45626,21.7626702 111.746109,25.7009609 108.671845,27.3473291 C105.599336,28.9942826 98.0628264,31.1047709 95.2517698,29.8669221 C91.5773925,28.2498174 83.6343736,25.3404337 86.3752415,23.9351973" id="Fill-29" fill="#CE4C7B"></path>
                    <path d="M89.6713604,23.2500787 C89.6713604,25.2148345 88.0786623,26.8073578 86.115134,26.8073578 C84.1516057,26.8073578 82.5606623,25.2148345 82.5606623,23.2500787 C82.5606623,21.2853229 84.1516057,19.6922143 86.115134,19.6922143 C88.0786623,19.6922143 89.6713604,21.2853229 89.6713604,23.2500787" id="Fill-31" fill="#BD4775"></path>
                    <path d="M47.0260057,79.9954105 C46.2369679,80.4478252 45.3192509,80.1944027 44.2430245,79.3960926 C41.4922132,77.2838484 37.5897226,77.2838484 34.8389113,79.3960926 C33.7621,80.1932322 32.8806472,80.3793484 32.0910245,79.9263484 C31.3031566,79.489736 31.2241943,78.0294841 32.8484774,76.7875384 C36.7638358,73.7815849 42.3181,73.7815849 46.2340434,76.7887089 C47.8594962,78.0306547 47.8138736,79.5576275 47.0260057,79.9954105" id="Fill-33" fill="#414141"></path>
                    <path d="M91.6372283,79.9954105 C90.8481906,80.4478252 89.9310585,80.1944027 88.8548321,79.3960926 C86.1046057,77.2838484 82.2021151,77.2838484 79.4513038,79.3960926 C78.3733226,80.1932322 77.4912849,80.3793484 76.703417,79.9263484 C75.9149642,79.489736 75.8342472,78.0294841 77.4597,76.7875384 C81.3762283,73.7815849 86.9304925,73.7815849 90.8458509,76.7887089 C92.4707189,78.0306547 92.4268509,79.5576275 91.6372283,79.9954105" id="Fill-35" fill="#414141"></path>
                    <path d="M97.9856189,85.9990066 C96.9234302,88.8539601 95.1195811,90.8444678 92.6243736,91.9102469 C89.9800151,93.0421616 87.085317,93.6403089 84.2532038,93.6403089 C77.5069019,93.6403089 72.2035623,90.3639601 69.7030906,84.6493709 C67.1464679,78.8077779 66.5305623,75.3956461 67.6430528,73.2406771 C68.4449585,71.6856112 70.2628453,70.6619717 73.3628453,70.0193438 C75.3661472,69.6026306 79.4072604,68.9044019 83.9531472,68.9044019 C89.2289962,68.9044019 95.9858264,69.8642469 98.2166566,74.4358012 C99.0004302,76.0423709 99.6292038,81.5796229 97.9856189,85.9990066 M54.6751094,84.6493709 C52.1734679,90.3639601 46.8695434,93.6403089 40.1238264,93.6403089 C37.2922981,93.6403089 34.3976,93.0421616 31.7526566,91.9102469 C29.2568642,90.8444678 27.4536,88.8539601 26.3908264,85.9990066 C24.7478264,81.5796229 25.3760151,76.0423709 26.1597887,74.4358012 C28.390034,69.8642469 35.1474491,68.9044019 40.423883,68.9044019 C44.9697698,68.9044019 49.010883,69.6026306 51.0136,70.0193438 C54.1147698,70.6619717 55.9320717,71.6856112 56.7339774,73.2406771 C57.8464679,75.3956461 57.2311472,78.8077779 54.6751094,84.6493709 M89.075166,67.8602779 C89.0722415,67.8608632 89.0704868,67.862619 89.0669774,67.8643748 C87.3286377,67.614464 85.5756755,67.5190647 83.9531472,67.5190647 C79.2838453,67.5190647 75.1374491,68.2360221 73.0815057,68.6615143 C73.0815057,68.6615143 64.8284868,70.3945027 62.1888075,70.0468516 C59.5491283,70.3945027 51.2943547,68.6615143 51.2943547,68.6615143 C49.2395811,68.2360221 45.0943547,67.5190647 40.423883,67.5190647 C38.8019396,67.5190647 37.0483925,67.614464 35.3094679,67.8643748 C35.3059585,67.862619 35.3047887,67.8608632 35.3012792,67.8602779 C32.6458075,68.1025802 25.6129019,69.6172624 22.9474868,70.2054601 C22.3386,70.3389019 21.9028453,70.8796926 21.9028453,71.5030066 L21.9028453,75.056774 C21.9028453,75.427836 22.0578453,75.7819252 22.3304113,76.0353477 C23.0048075,76.6574911 23.1644868,78.3143942 23.2013358,79.2402934 C23.5902981,87.6102585 27.5618075,90.6208942 27.5618075,90.6208942 L27.5606377,90.616212 C28.5766189,91.7194484 29.7932226,92.5803826 31.2075245,93.1855531 C34.0232604,94.3894562 37.1057132,95.0256461 40.1238264,95.0256461 C43.8853547,95.0256461 47.2304302,94.0757508 49.9701283,92.311743 C49.9654491,92.3158399 49.9607698,92.3216926 49.9572604,92.3257895 C50.1116755,92.227464 50.2526377,92.1215298 50.4006189,92.0202779 C50.5310528,91.9301461 50.6644113,91.8441112 50.7913358,91.7498826 C55.8285434,88.0872547 57.6218642,82.3638864 58.813317,78.7076965 C60.0679396,74.8530996 62.1888075,74.7243399 62.1888075,74.7243399 C62.1888075,74.7243399 64.3085057,74.8530996 65.5637132,78.7076965 C66.755166,82.3638864 68.5484868,88.0872547 73.5856943,91.7498826 C73.7126189,91.8441112 73.8459774,91.9301461 73.9769962,92.0202779 C74.1243925,92.1215298 74.2653547,92.227464 74.4186,92.3257895 C74.4150906,92.3216926 74.4115811,92.3158399 74.4069019,92.311743 C77.1466,94.0757508 80.4922604,95.0256461 84.2526189,95.0256461 L84.2532038,95.0256461 C87.2701472,95.0256461 90.3537698,94.3894562 93.1695057,93.1855531 C94.5832226,92.5803826 95.7998264,91.7194484 96.8158075,90.616212 L96.8146377,90.6208942 C96.8146377,90.6208942 100.786147,87.6102585 101.175109,79.2402934 C101.212543,78.3143942 101.372808,76.6574911 102.046619,76.0353477 C102.318015,75.7819252 102.4736,75.427836 102.4736,75.056774 L102.4736,71.5030066 C102.4736,70.8779368 102.0396,70.3394872 101.430128,70.2054601 C98.7635434,69.6172624 91.7312226,68.1025802 89.075166,67.8602779" id="Fill-37" fill="#CE4C7B"></path>
                    <path d="M73.547383,108.994141 C74.9377038,110.213847 70.7059113,120.499405 61.8586283,120.508184 C53.0101755,120.50116 48.7789679,110.215602 50.1687038,108.994141 C51.3601566,107.59066 54.8327415,108.466812 61.8586283,108.466812 C68.8845151,108.466812 72.3565151,107.59066 73.547383,108.994141" id="Fill-39" fill="#F9BD93"></path>
                    <path d="M73.6282755,109.270097 C73.6282755,109.270097 72.2016906,116.654465 61.8313132,116.654465 C51.4609358,116.654465 50.033766,109.270097 50.033766,109.270097 C50.033766,109.270097 54.5322755,110.882519 61.8313132,110.882519 C69.1303509,110.882519 73.6282755,109.270097 73.6282755,109.270097" id="Fill-41" fill="#EC8F6F"></path>
                    <path d="M73.628217,109.270038 C73.628217,109.270038 72.2016321,113.306069 61.8312547,113.306069 C51.4608774,113.306069 50.0337075,109.270038 50.0337075,109.270038 C50.0337075,109.270038 54.532217,110.753701 61.8312547,110.753701 C69.1302925,110.753701 73.628217,109.270038 73.628217,109.270038" id="Fill-43" fill="#FBFBFB"></path>
                </g>
            </g>
        </g>
    </g>
</svg>